# vtk DataFile Version 3.0
FEM_LIB
ASCII
DATASET UNSTRUCTURED_GRID
POINTS 1111 double
0.000000e+00 0.000000e+00 0.000000e+00
1.000000e+02 0.000000e+00 0.000000e+00
1.000000e+02 1.000000e+01 0.000000e+00
0.000000e+00 1.000000e+01 0.000000e+00
1.000000e+00 0.000000e+00 0.000000e+00
2.000000e+00 0.000000e+00 0.000000e+00
3.000000e+00 0.000000e+00 0.000000e+00
4.000000e+00 0.000000e+00 0.000000e+00
5.000000e+00 0.000000e+00 0.000000e+00
6.000000e+00 0.000000e+00 0.000000e+00
7.000000e+00 0.000000e+00 0.000000e+00
8.000000e+00 0.000000e+00 0.000000e+00
9.000000e+00 0.000000e+00 0.000000e+00
1.000000e+01 0.000000e+00 0.000000e+00
1.100000e+01 0.000000e+00 0.000000e+00
1.200000e+01 0.000000e+00 0.000000e+00
1.300000e+01 0.000000e+00 0.000000e+00
1.400000e+01 0.000000e+00 0.000000e+00
1.500000e+01 0.000000e+00 0.000000e+00
1.600000e+01 0.000000e+00 0.000000e+00
1.700000e+01 0.000000e+00 0.000000e+00
1.800000e+01 0.000000e+00 0.000000e+00
1.900000e+01 0.000000e+00 0.000000e+00
2.000000e+01 0.000000e+00 0.000000e+00
2.100000e+01 0.000000e+00 0.000000e+00
2.200000e+01 0.000000e+00 0.000000e+00
2.300000e+01 0.000000e+00 0.000000e+00
2.400000e+01 0.000000e+00 0.000000e+00
2.500000e+01 0.000000e+00 0.000000e+00
2.600000e+01 0.000000e+00 0.000000e+00
2.700000e+01 0.000000e+00 0.000000e+00
2.800000e+01 0.000000e+00 0.000000e+00
2.900000e+01 0.000000e+00 0.000000e+00
3.000000e+01 0.000000e+00 0.000000e+00
3.100000e+01 0.000000e+00 0.000000e+00
3.200000e+01 0.000000e+00 0.000000e+00
3.300000e+01 0.000000e+00 0.000000e+00
3.400000e+01 0.000000e+00 0.000000e+00
3.500000e+01 0.000000e+00 0.000000e+00
3.600000e+01 0.000000e+00 0.000000e+00
3.700000e+01 0.000000e+00 0.000000e+00
3.800000e+01 0.000000e+00 0.000000e+00
3.900000e+01 0.000000e+00 0.000000e+00
4.000000e+01 0.000000e+00 0.000000e+00
4.100000e+01 0.000000e+00 0.000000e+00
4.200000e+01 0.000000e+00 0.000000e+00
4.300000e+01 0.000000e+00 0.000000e+00
4.400000e+01 0.000000e+00 0.000000e+00
4.500000e+01 0.000000e+00 0.000000e+00
4.600000e+01 0.000000e+00 0.000000e+00
4.700000e+01 0.000000e+00 0.000000e+00
4.800000e+01 0.000000e+00 0.000000e+00
4.900000e+01 0.000000e+00 0.000000e+00
5.000000e+01 0.000000e+00 0.000000e+00
5.100000e+01 0.000000e+00 0.000000e+00
5.200000e+01 0.000000e+00 0.000000e+00
5.300000e+01 0.000000e+00 0.000000e+00
5.400000e+01 0.000000e+00 0.000000e+00
5.500000e+01 0.000000e+00 0.000000e+00
5.600000e+01 0.000000e+00 0.000000e+00
5.700000e+01 0.000000e+00 0.000000e+00
5.800000e+01 0.000000e+00 0.000000e+00
5.900000e+01 0.000000e+00 0.000000e+00
6.000000e+01 0.000000e+00 0.000000e+00
6.100000e+01 0.000000e+00 0.000000e+00
6.200000e+01 0.000000e+00 0.000000e+00
6.300000e+01 0.000000e+00 0.000000e+00
6.400000e+01 0.000000e+00 0.000000e+00
6.500000e+01 0.000000e+00 0.000000e+00
6.600000e+01 0.000000e+00 0.000000e+00
6.700000e+01 0.000000e+00 0.000000e+00
6.800000e+01 0.000000e+00 0.000000e+00
6.900000e+01 0.000000e+00 0.000000e+00
7.000000e+01 0.000000e+00 0.000000e+00
7.100000e+01 0.000000e+00 0.000000e+00
7.200000e+01 0.000000e+00 0.000000e+00
7.300000e+01 0.000000e+00 0.000000e+00
7.400000e+01 0.000000e+00 0.000000e+00
7.500000e+01 0.000000e+00 0.000000e+00
7.600000e+01 0.000000e+00 0.000000e+00
7.700000e+01 0.000000e+00 0.000000e+00
7.800000e+01 0.000000e+00 0.000000e+00
7.900000e+01 0.000000e+00 0.000000e+00
8.000000e+01 0.000000e+00 0.000000e+00
8.100000e+01 0.000000e+00 0.000000e+00
8.200000e+01 0.000000e+00 0.000000e+00
8.300000e+01 0.000000e+00 0.000000e+00
8.400000e+01 0.000000e+00 0.000000e+00
8.500000e+01 0.000000e+00 0.000000e+00
8.600000e+01 0.000000e+00 0.000000e+00
8.700000e+01 0.000000e+00 0.000000e+00
8.800000e+01 0.000000e+00 0.000000e+00
8.900000e+01 0.000000e+00 0.000000e+00
9.000000e+01 0.000000e+00 0.000000e+00
9.100000e+01 0.000000e+00 0.000000e+00
9.200000e+01 0.000000e+00 0.000000e+00
9.300000e+01 0.000000e+00 0.000000e+00
9.400000e+01 0.000000e+00 0.000000e+00
9.500000e+01 0.000000e+00 0.000000e+00
9.600000e+01 0.000000e+00 0.000000e+00
9.700000e+01 0.000000e+00 0.000000e+00
9.800000e+01 0.000000e+00 0.000000e+00
9.900000e+01 0.000000e+00 0.000000e+00
1.000000e+02 1.000000e+00 0.000000e+00
1.000000e+02 2.000000e+00 0.000000e+00
1.000000e+02 3.000000e+00 0.000000e+00
1.000000e+02 4.000000e+00 0.000000e+00
1.000000e+02 5.000000e+00 0.000000e+00
1.000000e+02 6.000000e+00 0.000000e+00
1.000000e+02 7.000000e+00 0.000000e+00
1.000000e+02 8.000000e+00 0.000000e+00
1.000000e+02 9.000000e+00 0.000000e+00
9.900000e+01 1.000000e+01 0.000000e+00
9.800000e+01 1.000000e+01 0.000000e+00
9.700000e+01 1.000000e+01 0.000000e+00
9.600000e+01 1.000000e+01 0.000000e+00
9.500000e+01 1.000000e+01 0.000000e+00
9.400000e+01 1.000000e+01 0.000000e+00
9.300000e+01 1.000000e+01 0.000000e+00
9.200000e+01 1.000000e+01 0.000000e+00
9.100000e+01 1.000000e+01 0.000000e+00
9.000000e+01 1.000000e+01 0.000000e+00
8.900000e+01 1.000000e+01 0.000000e+00
8.800000e+01 1.000000e+01 0.000000e+00
8.700000e+01 1.000000e+01 0.000000e+00
8.600000e+01 1.000000e+01 0.000000e+00
8.500000e+01 1.000000e+01 0.000000e+00
8.400000e+01 1.000000e+01 0.000000e+00
8.300000e+01 1.000000e+01 0.000000e+00
8.200000e+01 1.000000e+01 0.000000e+00
8.100000e+01 1.000000e+01 0.000000e+00
8.000000e+01 1.000000e+01 0.000000e+00
7.900000e+01 1.000000e+01 0.000000e+00
7.800000e+01 1.000000e+01 0.000000e+00
7.700000e+01 1.000000e+01 0.000000e+00
7.600000e+01 1.000000e+01 0.000000e+00
7.500000e+01 1.000000e+01 0.000000e+00
7.400000e+01 1.000000e+01 0.000000e+00
7.300000e+01 1.000000e+01 0.000000e+00
7.200000e+01 1.000000e+01 0.000000e+00
7.100000e+01 1.000000e+01 0.000000e+00
7.000000e+01 1.000000e+01 0.000000e+00
6.900000e+01 1.000000e+01 0.000000e+00
6.800000e+01 1.000000e+01 0.000000e+00
6.700000e+01 1.000000e+01 0.000000e+00
6.600000e+01 1.000000e+01 0.000000e+00
6.500000e+01 1.000000e+01 0.000000e+00
6.400000e+01 1.000000e+01 0.000000e+00
6.300000e+01 1.000000e+01 0.000000e+00
6.200000e+01 1.000000e+01 0.000000e+00
6.100000e+01 1.000000e+01 0.000000e+00
6.000000e+01 1.000000e+01 0.000000e+00
5.900000e+01 1.000000e+01 0.000000e+00
5.800000e+01 1.000000e+01 0.000000e+00
5.700000e+01 1.000000e+01 0.000000e+00
5.600000e+01 1.000000e+01 0.000000e+00
5.500000e+01 1.000000e+01 0.000000e+00
5.400000e+01 1.000000e+01 0.000000e+00
5.300000e+01 1.000000e+01 0.000000e+00
5.200000e+01 1.000000e+01 0.000000e+00
5.100000e+01 1.000000e+01 0.000000e+00
5.000000e+01 1.000000e+01 0.000000e+00
4.900000e+01 1.000000e+01 0.000000e+00
4.800000e+01 1.000000e+01 0.000000e+00
4.700000e+01 1.000000e+01 0.000000e+00
4.600000e+01 1.000000e+01 0.000000e+00
4.500000e+01 1.000000e+01 0.000000e+00
4.400000e+01 1.000000e+01 0.000000e+00
4.300000e+01 1.000000e+01 0.000000e+00
4.200000e+01 1.000000e+01 0.000000e+00
4.100000e+01 1.000000e+01 0.000000e+00
4.000000e+01 1.000000e+01 0.000000e+00
3.900000e+01 1.000000e+01 0.000000e+00
3.800000e+01 1.000000e+01 0.000000e+00
3.700000e+01 1.000000e+01 0.000000e+00
3.600000e+01 1.000000e+01 0.000000e+00
3.500000e+01 1.000000e+01 0.000000e+00
3.400000e+01 1.000000e+01 0.000000e+00
3.300000e+01 1.000000e+01 0.000000e+00
3.200000e+01 1.000000e+01 0.000000e+00
3.100000e+01 1.000000e+01 0.000000e+00
3.000000e+01 1.000000e+01 0.000000e+00
2.900000e+01 1.000000e+01 0.000000e+00
2.800000e+01 1.000000e+01 0.000000e+00
2.700000e+01 1.000000e+01 0.000000e+00
2.600000e+01 1.000000e+01 0.000000e+00
2.500000e+01 1.000000e+01 0.000000e+00
2.400000e+01 1.000000e+01 0.000000e+00
2.300000e+01 1.000000e+01 0.000000e+00
2.200000e+01 1.000000e+01 0.000000e+00
2.100000e+01 1.000000e+01 0.000000e+00
2.000000e+01 1.000000e+01 0.000000e+00
1.900000e+01 1.000000e+01 0.000000e+00
1.800000e+01 1.000000e+01 0.000000e+00
1.700000e+01 1.000000e+01 0.000000e+00
1.600000e+01 1.000000e+01 0.000000e+00
1.500000e+01 1.000000e+01 0.000000e+00
1.400000e+01 1.000000e+01 0.000000e+00
1.300000e+01 1.000000e+01 0.000000e+00
1.200000e+01 1.000000e+01 0.000000e+00
1.100000e+01 1.000000e+01 0.000000e+00
1.000000e+01 1.000000e+01 0.000000e+00
9.000000e+00 1.000000e+01 0.000000e+00
8.000000e+00 1.000000e+01 0.000000e+00
7.000000e+00 1.000000e+01 0.000000e+00
6.000000e+00 1.000000e+01 0.000000e+00
5.000000e+00 1.000000e+01 0.000000e+00
4.000000e+00 1.000000e+01 0.000000e+00
3.000000e+00 1.000000e+01 0.000000e+00
2.000000e+00 1.000000e+01 0.000000e+00
1.000000e+00 1.000000e+01 0.000000e+00
0.000000e+00 9.000000e+00 0.000000e+00
0.000000e+00 8.000000e+00 0.000000e+00
0.000000e+00 7.000000e+00 0.000000e+00
0.000000e+00 6.000000e+00 0.000000e+00
0.000000e+00 5.000000e+00 0.000000e+00
0.000000e+00 4.000000e+00 0.000000e+00
0.000000e+00 3.000000e+00 0.000000e+00
0.000000e+00 2.000000e+00 0.000000e+00
0.000000e+00 1.000000e+00 0.000000e+00
1.001892e+00 1.004770e+00 0.000000e+00
2.003375e+00 1.009408e+00 0.000000e+00
3.004426e+00 1.014354e+00 0.000000e+00
4.004658e+00 1.019400e+00 0.000000e+00
5.003847e+00 1.023772e+00 0.000000e+00
6.002571e+00 1.026964e+00 0.000000e+00
7.001430e+00 1.029206e+00 0.000000e+00
8.000664e+00 1.030628e+00 0.000000e+00
9.000275e+00 1.031303e+00 0.000000e+00
1.000010e+01 1.031588e+00 0.000000e+00
1.100003e+01 1.031712e+00 0.000000e+00
1.200001e+01 1.031852e+00 0.000000e+00
1.300000e+01 1.031767e+00 0.000000e+00
1.400000e+01 1.031632e+00 0.000000e+00
1.500000e+01 1.031618e+00 0.000000e+00
1.600000e+01 1.031670e+00 0.000000e+00
1.700000e+01 1.031676e+00 0.000000e+00
1.800001e+01 1.031643e+00 0.000000e+00
1.900001e+01 1.031603e+00 0.000000e+00
2.000001e+01 1.031572e+00 0.000000e+00
2.100001e+01 1.031553e+00 0.000000e+00
2.200002e+01 1.031543e+00 0.000000e+00
2.300002e+01 1.031538e+00 0.000000e+00
2.400002e+01 1.031535e+00 0.000000e+00
2.500002e+01 1.031535e+00 0.000000e+00
2.600002e+01 1.031534e+00 0.000000e+00
2.700002e+01 1.031534e+00 0.000000e+00
2.800002e+01 1.031534e+00 0.000000e+00
2.900002e+01 1.031534e+00 0.000000e+00
3.000002e+01 1.031534e+00 0.000000e+00
3.100002e+01 1.031534e+00 0.000000e+00
3.200002e+01 1.031534e+00 0.000000e+00
3.300002e+01 1.031534e+00 0.000000e+00
3.400002e+01 1.031534e+00 0.000000e+00
3.500002e+01 1.031534e+00 0.000000e+00
3.600002e+01 1.031534e+00 0.000000e+00
3.700002e+01 1.031534e+00 0.000000e+00
3.800002e+01 1.031534e+00 0.000000e+00
3.900002e+01 1.031534e+00 0.000000e+00
4.000002e+01 1.031534e+00 0.000000e+00
4.100002e+01 1.031534e+00 0.000000e+00
4.200002e+01 1.031534e+00 0.000000e+00
4.300002e+01 1.031534e+00 0.000000e+00
4.400002e+01 1.031534e+00 0.000000e+00
4.500002e+01 1.031534e+00 0.000000e+00
4.600002e+01 1.031534e+00 0.000000e+00
4.700002e+01 1.031534e+00 0.000000e+00
4.800002e+01 1.031534e+00 0.000000e+00
4.900002e+01 1.031534e+00 0.000000e+00
5.000002e+01 1.031534e+00 0.000000e+00
5.100002e+01 1.031534e+00 0.000000e+00
5.200002e+01 1.031534e+00 0.000000e+00
5.300002e+01 1.031534e+00 0.000000e+00
5.400002e+01 1.031534e+00 0.000000e+00
5.500002e+01 1.031534e+00 0.000000e+00
5.600002e+01 1.031534e+00 0.000000e+00
5.700002e+01 1.031534e+00 0.000000e+00
5.800002e+01 1.031534e+00 0.000000e+00
5.900002e+01 1.031534e+00 0.000000e+00
6.000002e+01 1.031534e+00 0.000000e+00
6.100002e+01 1.031534e+00 0.000000e+00
6.200002e+01 1.031534e+00 0.000000e+00
6.300002e+01 1.031534e+00 0.000000e+00
6.400002e+01 1.031534e+00 0.000000e+00
6.500002e+01 1.031534e+00 0.000000e+00
6.600002e+01 1.031534e+00 0.000000e+00
6.700002e+01 1.031534e+00 0.000000e+00
6.800002e+01 1.031534e+00 0.000000e+00
6.900002e+01 1.031534e+00 0.000000e+00
7.000002e+01 1.031534e+00 0.000000e+00
7.100002e+01 1.031534e+00 0.000000e+00
7.200002e+01 1.031534e+00 0.000000e+00
7.300002e+01 1.031534e+00 0.000000e+00
7.400002e+01 1.031534e+00 0.000000e+00
7.500002e+01 1.031534e+00 0.000000e+00
7.600002e+01 1.031534e+00 0.000000e+00
7.700002e+01 1.031534e+00 0.000000e+00
7.800002e+01 1.031534e+00 0.000000e+00
7.900002e+01 1.031534e+00 0.000000e+00
8.000002e+01 1.031534e+00 0.000000e+00
8.100002e+01 1.031534e+00 0.000000e+00
8.200002e+01 1.031534e+00 0.000000e+00
8.300002e+01 1.031534e+00 0.000000e+00
8.400002e+01 1.031534e+00 0.000000e+00
8.500002e+01 1.031534e+00 0.000000e+00
8.600002e+01 1.031534e+00 0.000000e+00
8.700002e+01 1.031534e+00 0.000000e+00
8.800002e+01 1.031533e+00 0.000000e+00
8.900002e+01 1.031531e+00 0.000000e+00
9.000002e+01 1.031524e+00 0.000000e+00
9.100002e+01 1.031488e+00 0.000000e+00
9.200003e+01 1.031452e+00 0.000000e+00
9.300003e+01 1.031425e+00 0.000000e+00
9.399983e+01 1.030403e+00 0.000000e+00
9.499946e+01 1.027782e+00 0.000000e+00
9.599915e+01 1.023580e+00 0.000000e+00
9.699908e+01 1.018348e+00 0.000000e+00
9.799928e+01 1.012544e+00 0.000000e+00
9.899967e+01 1.006471e+00 0.000000e+00
9.899896e+01 2.012226e+00 0.000000e+00
9.899772e+01 3.016212e+00 0.000000e+00
9.899637e+01 4.017837e+00 0.000000e+00
9.899544e+01 5.017200e+00 0.000000e+00
9.899519e+01 6.014879e+00 0.000000e+00
9.899579e+01 7.011549e+00 0.000000e+00
9.899690e+01 8.007789e+00 0.000000e+00
9.899831e+01 9.004076e+00 0.000000e+00
9.799690e+01 9.007138e+00 0.000000e+00
9.699632e+01 9.009021e+00 0.000000e+00
9.599668e+01 9.010064e+00 0.000000e+00
9.499756e+01 9.010331e+00 0.000000e+00
9.399847e+01 9.010015e+00 0.000000e+00
9.299916e+01 9.009613e+00 0.000000e+00
9.199957e+01 9.009402e+00 0.000000e+00
9.099977e+01 9.009435e+00 0.000000e+00
8.999986e+01 9.009578e+00 0.000000e+00
8.899989e+01 9.009717e+00 0.000000e+00
8.799990e+01 9.009813e+00 0.000000e+00
8.699990e+01 9.009868e+00 0.000000e+00
8.599991e+01 9.009896e+00 0.000000e+00
8.499991e+01 9.009909e+00 0.000000e+00
8.399991e+01 9.009915e+00 0.000000e+00
8.299991e+01 9.009918e+00 0.000000e+00
8.199991e+01 9.009918e+00 0.000000e+00
8.099991e+01 9.009919e+00 0.000000e+00
7.999991e+01 9.009919e+00 0.000000e+00
7.899991e+01 9.009919e+00 0.000000e+00
7.799991e+01 9.009919e+00 0.000000e+00
7.699991e+01 9.009919e+00 0.000000e+00
7.599991e+01 9.009919e+00 0.000000e+00
7.499991e+01 9.009919e+00 0.000000e+00
7.399991e+01 9.009919e+00 0.000000e+00
7.299991e+01 9.009919e+00 0.000000e+00
7.199991e+01 9.009919e+00 0.000000e+00
7.099991e+01 9.009919e+00 0.000000e+00
6.999991e+01 9.009919e+00 0.000000e+00
6.899991e+01 9.009919e+00 0.000000e+00
6.799991e+01 9.009919e+00 0.000000e+00
6.699991e+01 9.009919e+00 0.000000e+00
6.599991e+01 9.009919e+00 0.000000e+00
6.499991e+01 9.009919e+00 0.000000e+00
6.399991e+01 9.009919e+00 0.000000e+00
6.299991e+01 9.009919e+00 0.000000e+00
6.199991e+01 9.009919e+00 0.000000e+00
6.099991e+01 9.009919e+00 0.000000e+00
5.999991e+01 9.009919e+00 0.000000e+00
5.899991e+01 9.009919e+00 0.000000e+00
5.799991e+01 9.009919e+00 0.000000e+00
5.699991e+01 9.009919e+00 0.000000e+00
5.599991e+01 9.009919e+00 0.000000e+00
5.499991e+01 9.009919e+00 0.000000e+00
5.399991e+01 9.009919e+00 0.000000e+00
5.299991e+01 9.009919e+00 0.000000e+00
5.199991e+01 9.009919e+00 0.000000e+00
5.099991e+01 9.009919e+00 0.000000e+00
4.999991e+01 9.009919e+00 0.000000e+00
4.899991e+01 9.009919e+00 0.000000e+00
4.799991e+01 9.009919e+00 0.000000e+00
4.699991e+01 9.009919e+00 0.000000e+00
4.599991e+01 9.009919e+00 0.000000e+00
4.499991e+01 9.009919e+00 0.000000e+00
4.399991e+01 9.009919e+00 0.000000e+00
4.299991e+01 9.009919e+00 0.000000e+00
4.199991e+01 9.009919e+00 0.000000e+00
4.099991e+01 9.009919e+00 0.000000e+00
3.999991e+01 9.009919e+00 0.000000e+00
3.899991e+01 9.009919e+00 0.000000e+00
3.799991e+01 9.009919e+00 0.000000e+00
3.699991e+01 9.009919e+00 0.000000e+00
3.599991e+01 9.009919e+00 0.000000e+00
3.499991e+01 9.009919e+00 0.000000e+00
3.399991e+01 9.009919e+00 0.000000e+00
3.299991e+01 9.009919e+00 0.000000e+00
3.199991e+01 9.009919e+00 0.000000e+00
3.099991e+01 9.009919e+00 0.000000e+00
2.999991e+01 9.009919e+00 0.000000e+00
2.899991e+01 9.009919e+00 0.000000e+00
2.799991e+01 9.009919e+00 0.000000e+00
2.699991e+01 9.009919e+00 0.000000e+00
2.599991e+01 9.009919e+00 0.000000e+00
2.499991e+01 9.009919e+00 0.000000e+00
2.399991e+01 9.009919e+00 0.000000e+00
2.299991e+01 9.009919e+00 0.000000e+00
2.199991e+01 9.009919e+00 0.000000e+00
2.099991e+01 9.009920e+00 0.000000e+00
1.999991e+01 9.009921e+00 0.000000e+00
1.899991e+01 9.009927e+00 0.000000e+00
1.799991e+01 9.009950e+00 0.000000e+00
1.699990e+01 9.010039e+00 0.000000e+00
1.599990e+01 9.010120e+00 0.000000e+00
1.499989e+01 9.010029e+00 0.000000e+00
1.399989e+01 9.009926e+00 0.000000e+00
1.299989e+01 9.009968e+00 0.000000e+00
1.199989e+01 9.010066e+00 0.000000e+00
1.099988e+01 9.010082e+00 0.000000e+00
9.999880e+00 9.010049e+00 0.000000e+00
8.999876e+00 9.010003e+00 0.000000e+00
7.999875e+00 9.009966e+00 0.000000e+00
6.999849e+00 9.009952e+00 0.000000e+00
6.000196e+00 9.009661e+00 0.000000e+00
5.000785e+00 9.009044e+00 0.000000e+00
4.001260e+00 9.008011e+00 0.000000e+00
3.001318e+00 9.006523e+00 0.000000e+00
2.001004e+00 9.004547e+00 0.000000e+00
1.000434e+00 9.002338e+00 0.000000e+00
1.001392e+00 8.004584e+00 0.000000e+00
1.003085e+00 7.007287e+00 0.000000e+00
1.004907e+00 6.010231e+00 0.000000e+00
1.006074e+00 5.012420e+00 0.000000e+00
1.006163e+00 4.013034e+00 0.000000e+00
1.005066e+00 3.011589e+00 0.000000e+00
1.003429e+00 2.008513e+00 0.000000e+00
4.008947e+00 2.036077e+00 0.000000e+00
3.008042e+00 2.025907e+00 0.000000e+00
5.007480e+00 2.044380e+00 0.000000e+00
6.005085e+00 2.050360e+00 0.000000e+00
7.002896e+00 2.055149e+00 0.000000e+00
8.001331e+00 2.058604e+00 0.000000e+00
9.000531e+00 2.059943e+00 0.000000e+00
1.000017e+01 2.060590e+00 0.000000e+00
1.100004e+01 2.060825e+00 0.000000e+00
1.200000e+01 2.061043e+00 0.000000e+00
1.299999e+01 2.060665e+00 0.000000e+00
1.399998e+01 2.060347e+00 0.000000e+00
1.499998e+01 2.060391e+00 0.000000e+00
1.599999e+01 2.060531e+00 0.000000e+00
1.700001e+01 2.060507e+00 0.000000e+00
1.800002e+01 2.060383e+00 0.000000e+00
1.900003e+01 2.060256e+00 0.000000e+00
2.000003e+01 2.060164e+00 0.000000e+00
2.100004e+01 2.060108e+00 0.000000e+00
2.200004e+01 2.060079e+00 0.000000e+00
2.300003e+01 2.060064e+00 0.000000e+00
2.400004e+01 2.060058e+00 0.000000e+00
2.500003e+01 2.060055e+00 0.000000e+00
2.600004e+01 2.060054e+00 0.000000e+00
2.700003e+01 2.060053e+00 0.000000e+00
2.800003e+01 2.060053e+00 0.000000e+00
2.900004e+01 2.060053e+00 0.000000e+00
3.000003e+01 2.060053e+00 0.000000e+00
3.100003e+01 2.060053e+00 0.000000e+00
3.200004e+01 2.060053e+00 0.000000e+00
3.300003e+01 2.060053e+00 0.000000e+00
3.400003e+01 2.060053e+00 0.000000e+00
3.500004e+01 2.060053e+00 0.000000e+00
3.600003e+01 2.060053e+00 0.000000e+00
3.700003e+01 2.060053e+00 0.000000e+00
3.800004e+01 2.060053e+00 0.000000e+00
3.900003e+01 2.060053e+00 0.000000e+00
4.000003e+01 2.060053e+00 0.000000e+00
4.100004e+01 2.060053e+00 0.000000e+00
4.200003e+01 2.060053e+00 0.000000e+00
4.300003e+01 2.060053e+00 0.000000e+00
4.400004e+01 2.060053e+00 0.000000e+00
4.500003e+01 2.060053e+00 0.000000e+00
4.600003e+01 2.060053e+00 0.000000e+00
4.700004e+01 2.060053e+00 0.000000e+00
4.800003e+01 2.060053e+00 0.000000e+00
4.900003e+01 2.060053e+00 0.000000e+00
5.000004e+01 2.060053e+00 0.000000e+00
5.100003e+01 2.060053e+00 0.000000e+00
5.200003e+01 2.060053e+00 0.000000e+00
5.300004e+01 2.060053e+00 0.000000e+00
5.400003e+01 2.060053e+00 0.000000e+00
5.500003e+01 2.060053e+00 0.000000e+00
5.600004e+01 2.060053e+00 0.000000e+00
5.700003e+01 2.060053e+00 0.000000e+00
5.800003e+01 2.060053e+00 0.000000e+00
5.900004e+01 2.060053e+00 0.000000e+00
6.000003e+01 2.060053e+00 0.000000e+00
6.100003e+01 2.060053e+00 0.000000e+00
6.200004e+01 2.060053e+00 0.000000e+00
6.300003e+01 2.060053e+00 0.000000e+00
6.400003e+01 2.060053e+00 0.000000e+00
6.500004e+01 2.060053e+00 0.000000e+00
6.600003e+01 2.060053e+00 0.000000e+00
6.700003e+01 2.060053e+00 0.000000e+00
6.800004e+01 2.060053e+00 0.000000e+00
6.900003e+01 2.060053e+00 0.000000e+00
7.000003e+01 2.060053e+00 0.000000e+00
7.100004e+01 2.060053e+00 0.000000e+00
7.200003e+01 2.060053e+00 0.000000e+00
7.300003e+01 2.060053e+00 0.000000e+00
7.400004e+01 2.060053e+00 0.000000e+00
7.500003e+01 2.060053e+00 0.000000e+00
7.600003e+01 2.060053e+00 0.000000e+00
7.700004e+01 2.060053e+00 0.000000e+00
7.800003e+01 2.060053e+00 0.000000e+00
7.900003e+01 2.060053e+00 0.000000e+00
8.000004e+01 2.060053e+00 0.000000e+00
8.100003e+01 2.060053e+00 0.000000e+00
8.200003e+01 2.060053e+00 0.000000e+00
8.300004e+01 2.060053e+00 0.000000e+00
8.400003e+01 2.060053e+00 0.000000e+00
8.500003e+01 2.060053e+00 0.000000e+00
8.600004e+01 2.060052e+00 0.000000e+00
8.700003e+01 2.060051e+00 0.000000e+00
8.800003e+01 2.060045e+00 0.000000e+00
8.900004e+01 2.060023e+00 0.000000e+00
9.000005e+01 2.059929e+00 0.000000e+00
9.100006e+01 2.059793e+00 0.000000e+00
9.200008e+01 2.059701e+00 0.000000e+00
9.299982e+01 2.058790e+00 0.000000e+00
9.399914e+01 2.055806e+00 0.000000e+00
9.499825e+01 2.050173e+00 0.000000e+00
9.599759e+01 2.042282e+00 0.000000e+00
9.699744e+01 2.032924e+00 0.000000e+00
9.799787e+01 2.022723e+00 0.000000e+00
9.799590e+01 3.030412e+00 0.000000e+00
9.799392e+01 4.033464e+00 0.000000e+00
9.799263e+01 5.032001e+00 0.000000e+00
9.799212e+01 6.027708e+00 0.000000e+00
9.799307e+01 7.021011e+00 0.000000e+00
9.799480e+01 8.013724e+00 0.000000e+00
9.699372e+01 8.018576e+00 0.000000e+00
9.599424e+01 8.021894e+00 0.000000e+00
9.499567e+01 8.023542e+00 0.000000e+00
9.399718e+01 8.024049e+00 0.000000e+00
9.299844e+01 8.024110e+00 0.000000e+00
9.199922e+01 8.024169e+00 0.000000e+00
9.099959e+01 8.024383e+00 0.000000e+00
8.999975e+01 8.024685e+00 0.000000e+00
8.899981e+01 8.024957e+00 0.000000e+00
8.799983e+01 8.025142e+00 0.000000e+00
8.699984e+01 8.025250e+00 0.000000e+00
8.599984e+01 8.025306e+00 0.000000e+00
8.499984e+01 8.025333e+00 0.000000e+00
8.399984e+01 8.025345e+00 0.000000e+00
8.299984e+01 8.025350e+00 0.000000e+00
8.199984e+01 8.025352e+00 0.000000e+00
8.099984e+01 8.025353e+00 0.000000e+00
7.999984e+01 8.025354e+00 0.000000e+00
7.899984e+01 8.025354e+00 0.000000e+00
7.799984e+01 8.025354e+00 0.000000e+00
7.699984e+01 8.025354e+00 0.000000e+00
7.599984e+01 8.025354e+00 0.000000e+00
7.499984e+01 8.025354e+00 0.000000e+00
7.399984e+01 8.025354e+00 0.000000e+00
7.299984e+01 8.025354e+00 0.000000e+00
7.199984e+01 8.025354e+00 0.000000e+00
7.099984e+01 8.025354e+00 0.000000e+00
6.999984e+01 8.025354e+00 0.000000e+00
6.899984e+01 8.025354e+00 0.000000e+00
6.799984e+01 8.025354e+00 0.000000e+00
6.699984e+01 8.025354e+00 0.000000e+00
6.599984e+01 8.025354e+00 0.000000e+00
6.499984e+01 8.025354e+00 0.000000e+00
6.399984e+01 8.025354e+00 0.000000e+00
6.299984e+01 8.025354e+00 0.000000e+00
6.199984e+01 8.025354e+00 0.000000e+00
6.099984e+01 8.025354e+00 0.000000e+00
5.999984e+01 8.025354e+00 0.000000e+00
5.899984e+01 8.025354e+00 0.000000e+00
5.799984e+01 8.025354e+00 0.000000e+00
5.699984e+01 8.025354e+00 0.000000e+00
5.599984e+01 8.025354e+00 0.000000e+00
5.499984e+01 8.025354e+00 0.000000e+00
5.399984e+01 8.025354e+00 0.000000e+00
5.299984e+01 8.025354e+00 0.000000e+00
5.199984e+01 8.025354e+00 0.000000e+00
5.099984e+01 8.025354e+00 0.000000e+00
4.999984e+01 8.025354e+00 0.000000e+00
4.899984e+01 8.025354e+00 0.000000e+00
4.799984e+01 8.025354e+00 0.000000e+00
4.699984e+01 8.025354e+00 0.000000e+00
4.599984e+01 8.025354e+00 0.000000e+00
4.499984e+01 8.025354e+00 0.000000e+00
4.399984e+01 8.025354e+00 0.000000e+00
4.299984e+01 8.025354e+00 0.000000e+00
4.199984e+01 8.025354e+00 0.000000e+00
4.099984e+01 8.025354e+00 0.000000e+00
3.999984e+01 8.025354e+00 0.000000e+00
3.899984e+01 8.025354e+00 0.000000e+00
3.799984e+01 8.025354e+00 0.000000e+00
3.699984e+01 8.025354e+00 0.000000e+00
3.599984e+01 8.025354e+00 0.000000e+00
3.499984e+01 8.025354e+00 0.000000e+00
3.399984e+01 8.025354e+00 0.000000e+00
3.299984e+01 8.025354e+00 0.000000e+00
3.199984e+01 8.025354e+00 0.000000e+00
3.099984e+01 8.025354e+00 0.000000e+00
2.999984e+01 8.025354e+00 0.000000e+00
2.899984e+01 8.025354e+00 0.000000e+00
2.799984e+01 8.025354e+00 0.000000e+00
2.699984e+01 8.025354e+00 0.000000e+00
2.599984e+01 8.025354e+00 0.000000e+00
2.499984e+01 8.025354e+00 0.000000e+00
2.399984e+01 8.025354e+00 0.000000e+00
2.299984e+01 8.025354e+00 0.000000e+00
2.199984e+01 8.025355e+00 0.000000e+00
2.099984e+01 8.025360e+00 0.000000e+00
1.999984e+01 8.025374e+00 0.000000e+00
1.899984e+01 8.025424e+00 0.000000e+00
1.799983e+01 8.025605e+00 0.000000e+00
1.699982e+01 8.025880e+00 0.000000e+00
1.599980e+01 8.025881e+00 0.000000e+00
1.499979e+01 8.025561e+00 0.000000e+00
1.399979e+01 8.025405e+00 0.000000e+00
1.299979e+01 8.025630e+00 0.000000e+00
1.199978e+01 8.025883e+00 0.000000e+00
1.099976e+01 8.025883e+00 0.000000e+00
9.999745e+00 8.025772e+00 0.000000e+00
8.999736e+00 8.025632e+00 0.000000e+00
7.999716e+00 8.025497e+00 0.000000e+00
7.000145e+00 8.024842e+00 0.000000e+00
6.001292e+00 8.023313e+00 0.000000e+00
5.002675e+00 8.020876e+00 0.000000e+00
4.003599e+00 8.017696e+00 0.000000e+00
3.003694e+00 8.013821e+00 0.000000e+00
2.002986e+00 8.009334e+00 0.000000e+00
2.005746e+00 7.014854e+00 0.000000e+00
2.008476e+00 6.020468e+00 0.000000e+00
2.010109e+00 5.024392e+00 0.000000e+00
2.010390e+00 4.025561e+00 0.000000e+00
2.008559e+00 3.022585e+00 0.000000e+00
2.005843e+00 2.016588e+00 0.000000e+00
5.010203e+00 3.057546e+00 0.000000e+00
4.011251e+00 3.045227e+00 0.000000e+00
8.001805e+00 3.078547e+00 0.000000e+00
7.004165e+00 3.071865e+00 0.000000e+00
9.000642e+00 3.079782e+00 0.000000e+00
1.000015e+01 3.080854e+00 0.000000e+00
1.099998e+01 3.080676e+00 0.000000e+00
1.199994e+01 3.081304e+00 0.000000e+00
1.299993e+01 3.080398e+00 0.000000e+00
1.399993e+01 3.079808e+00 0.000000e+00
1.499994e+01 3.079971e+00 0.000000e+00
1.599996e+01 3.080278e+00 0.000000e+00
1.699999e+01 3.080174e+00 0.000000e+00
1.800001e+01 3.079907e+00 0.000000e+00
1.900003e+01 3.079658e+00 0.000000e+00
2.000003e+01 3.079486e+00 0.000000e+00
2.100004e+01 3.079385e+00 0.000000e+00
2.200004e+01 3.079332e+00 0.000000e+00
2.300004e+01 3.079306e+00 0.000000e+00
2.400004e+01 3.079294e+00 0.000000e+00
2.500004e+01 3.079289e+00 0.000000e+00
2.600004e+01 3.079287e+00 0.000000e+00
2.700004e+01 3.079286e+00 0.000000e+00
2.800004e+01 3.079285e+00 0.000000e+00
2.900004e+01 3.079285e+00 0.000000e+00
3.000004e+01 3.079285e+00 0.000000e+00
3.100004e+01 3.079285e+00 0.000000e+00
3.200004e+01 3.079285e+00 0.000000e+00
3.300004e+01 3.079285e+00 0.000000e+00
3.400004e+01 3.079285e+00 0.000000e+00
3.500004e+01 3.079285e+00 0.000000e+00
3.600004e+01 3.079285e+00 0.000000e+00
3.700004e+01 3.079285e+00 0.000000e+00
3.800004e+01 3.079285e+00 0.000000e+00
3.900004e+01 3.079285e+00 0.000000e+00
4.000004e+01 3.079285e+00 0.000000e+00
4.100004e+01 3.079285e+00 0.000000e+00
4.200004e+01 3.079285e+00 0.000000e+00
4.300004e+01 3.079285e+00 0.000000e+00
4.400004e+01 3.079285e+00 0.000000e+00
4.500004e+01 3.079285e+00 0.000000e+00
4.600004e+01 3.079285e+00 0.000000e+00
4.700004e+01 3.079285e+00 0.000000e+00
4.800004e+01 3.079285e+00 0.000000e+00
4.900004e+01 3.079285e+00 0.000000e+00
5.000004e+01 3.079285e+00 0.000000e+00
5.100004e+01 3.079285e+00 0.000000e+00
5.200004e+01 3.079285e+00 0.000000e+00
5.300004e+01 3.079285e+00 0.000000e+00
5.400004e+01 3.079285e+00 0.000000e+00
5.500004e+01 3.079285e+00 0.000000e+00
5.600004e+01 3.079285e+00 0.000000e+00
5.700004e+01 3.079285e+00 0.000000e+00
5.800004e+01 3.079285e+00 0.000000e+00
5.900004e+01 3.079285e+00 0.000000e+00
6.000004e+01 3.079285e+00 0.000000e+00
6.100004e+01 3.079285e+00 0.000000e+00
6.200004e+01 3.079285e+00 0.000000e+00
6.300004e+01 3.079285e+00 0.000000e+00
6.400004e+01 3.079285e+00 0.000000e+00
6.500004e+01 3.079285e+00 0.000000e+00
6.600004e+01 3.079285e+00 0.000000e+00
6.700004e+01 3.079285e+00 0.000000e+00
6.800004e+01 3.079285e+00 0.000000e+00
6.900004e+01 3.079285e+00 0.000000e+00
7.000004e+01 3.079285e+00 0.000000e+00
7.100004e+01 3.079285e+00 0.000000e+00
7.200004e+01 3.079285e+00 0.000000e+00
7.300004e+01 3.079285e+00 0.000000e+00
7.400004e+01 3.079285e+00 0.000000e+00
7.500004e+01 3.079285e+00 0.000000e+00
7.600004e+01 3.079285e+00 0.000000e+00
7.700004e+01 3.079285e+00 0.000000e+00
7.800004e+01 3.079285e+00 0.000000e+00
7.900004e+01 3.079285e+00 0.000000e+00
8.000004e+01 3.079285e+00 0.000000e+00
8.100004e+01 3.079285e+00 0.000000e+00
8.200004e+01 3.079285e+00 0.000000e+00
8.300004e+01 3.079285e+00 0.000000e+00
8.400004e+01 3.079285e+00 0.000000e+00
8.500004e+01 3.079284e+00 0.000000e+00
8.600004e+01 3.079281e+00 0.000000e+00
8.700004e+01 3.079270e+00 0.000000e+00
8.800005e+01 3.079235e+00 0.000000e+00
8.900006e+01 3.079102e+00 0.000000e+00
9.000008e+01 3.078853e+00 0.000000e+00
9.100011e+01 3.078613e+00 0.000000e+00
9.199993e+01 3.078044e+00 0.000000e+00
9.299922e+01 3.075945e+00 0.000000e+00
9.399796e+01 3.071177e+00 0.000000e+00
9.499659e+01 3.063453e+00 0.000000e+00
9.599560e+01 3.053406e+00 0.000000e+00
9.699531e+01 3.041879e+00 0.000000e+00
9.699333e+01 4.046155e+00 0.000000e+00
9.699114e+01 6.038880e+00 0.000000e+00
9.699231e+01 5.043698e+00 0.000000e+00
9.699234e+01 7.028721e+00 0.000000e+00
9.599284e+01 7.035236e+00 0.000000e+00
9.399619e+01 7.041963e+00 0.000000e+00
9.499454e+01 7.039158e+00 0.000000e+00
9.299794e+01 7.043302e+00 0.000000e+00
9.199903e+01 7.044100e+00 0.000000e+00
9.099953e+01 7.044488e+00 0.000000e+00
8.999973e+01 7.044885e+00 0.000000e+00
8.899980e+01 7.045239e+00 0.000000e+00
8.799982e+01 7.045486e+00 0.000000e+00
8.699983e+01 7.045630e+00 0.000000e+00
8.599983e+01 7.045705e+00 0.000000e+00
8.499983e+01 7.045741e+00 0.000000e+00
8.399983e+01 7.045757e+00 0.000000e+00
8.299983e+01 7.045764e+00 0.000000e+00
8.199983e+01 7.045767e+00 0.000000e+00
8.099983e+01 7.045768e+00 0.000000e+00
7.999983e+01 7.045769e+00 0.000000e+00
7.899983e+01 7.045769e+00 0.000000e+00
7.799983e+01 7.045769e+00 0.000000e+00
7.699983e+01 7.045769e+00 0.000000e+00
7.599983e+01 7.045769e+00 0.000000e+00
7.499983e+01 7.045769e+00 0.000000e+00
7.399983e+01 7.045769e+00 0.000000e+00
7.299983e+01 7.045769e+00 0.000000e+00
7.199983e+01 7.045769e+00 0.000000e+00
7.099983e+01 7.045769e+00 0.000000e+00
6.999983e+01 7.045769e+00 0.000000e+00
6.899983e+01 7.045769e+00 0.000000e+00
6.799983e+01 7.045769e+00 0.000000e+00
6.699983e+01 7.045769e+00 0.000000e+00
6.599983e+01 7.045769e+00 0.000000e+00
6.499983e+01 7.045769e+00 0.000000e+00
6.399983e+01 7.045769e+00 0.000000e+00
6.299983e+01 7.045769e+00 0.000000e+00
6.199983e+01 7.045769e+00 0.000000e+00
6.099983e+01 7.045769e+00 0.000000e+00
5.999983e+01 7.045769e+00 0.000000e+00
5.899983e+01 7.045769e+00 0.000000e+00
5.799983e+01 7.045769e+00 0.000000e+00
5.699983e+01 7.045769e+00 0.000000e+00
5.599983e+01 7.045769e+00 0.000000e+00
5.499983e+01 7.045769e+00 0.000000e+00
5.399983e+01 7.045769e+00 0.000000e+00
5.299983e+01 7.045769e+00 0.000000e+00
5.199983e+01 7.045769e+00 0.000000e+00
5.099983e+01 7.045769e+00 0.000000e+00
4.999983e+01 7.045769e+00 0.000000e+00
4.899983e+01 7.045769e+00 0.000000e+00
4.799983e+01 7.045769e+00 0.000000e+00
4.699983e+01 7.045769e+00 0.000000e+00
4.599983e+01 7.045769e+00 0.000000e+00
4.499983e+01 7.045769e+00 0.000000e+00
4.399983e+01 7.045769e+00 0.000000e+00
4.299983e+01 7.045769e+00 0.000000e+00
4.199983e+01 7.045769e+00 0.000000e+00
4.099983e+01 7.045769e+00 0.000000e+00
3.999983e+01 7.045769e+00 0.000000e+00
3.899983e+01 7.045769e+00 0.000000e+00
3.799983e+01 7.045769e+00 0.000000e+00
3.699983e+01 7.045769e+00 0.000000e+00
3.599983e+01 7.045769e+00 0.000000e+00
3.499983e+01 7.045769e+00 0.000000e+00
3.399983e+01 7.045769e+00 0.000000e+00
3.299983e+01 7.045769e+00 0.000000e+00
3.199983e+01 7.045769e+00 0.000000e+00
3.099983e+01 7.045769e+00 0.000000e+00
2.999983e+01 7.045769e+00 0.000000e+00
2.899983e+01 7.045769e+00 0.000000e+00
2.799983e+01 7.045769e+00 0.000000e+00
2.699983e+01 7.045769e+00 0.000000e+00
2.599983e+01 7.045769e+00 0.000000e+00
2.499983e+01 7.045769e+00 0.000000e+00
2.399983e+01 7.045770e+00 0.000000e+00
2.299983e+01 7.045772e+00 0.000000e+00
2.199983e+01 7.045779e+00 0.000000e+00
2.099983e+01 7.045799e+00 0.000000e+00
1.999983e+01 7.045861e+00 0.000000e+00
1.899982e+01 7.046057e+00 0.000000e+00
1.799981e+01 7.046454e+00 0.000000e+00
1.699978e+01 7.046783e+00 0.000000e+00
1.599975e+01 7.046658e+00 0.000000e+00
1.499974e+01 7.046093e+00 0.000000e+00
1.399973e+01 7.045926e+00 0.000000e+00
1.299972e+01 7.046437e+00 0.000000e+00
1.199969e+01 7.046938e+00 0.000000e+00
1.099966e+01 7.046871e+00 0.000000e+00
9.999636e+00 7.046657e+00 0.000000e+00
8.999634e+00 7.046318e+00 0.000000e+00
7.999984e+00 7.045449e+00 0.000000e+00
7.001260e+00 7.043316e+00 0.000000e+00
6.003339e+00 7.039657e+00 0.000000e+00
5.005404e+00 7.034583e+00 0.000000e+00
4.006670e+00 7.028644e+00 0.000000e+00
3.006829e+00 7.022122e+00 0.000000e+00
3.009716e+00 6.030044e+00 0.000000e+00
3.012363e+00 4.037540e+00 0.000000e+00
3.011106e+00 5.035013e+00 0.000000e+00
3.010052e+00 3.032809e+00 0.000000e+00
6.006988e+00 3.064392e+00 0.000000e+00
9.999941e+00 4.088063e+00 0.000000e+00
9.000494e+00 4.085381e+00 0.000000e+00
8.001943e+00 4.081823e+00 0.000000e+00
1.199982e+01 4.088783e+00 0.000000e+00
1.099985e+01 4.085737e+00 0.000000e+00
1.299984e+01 4.086387e+00 0.000000e+00
1.399985e+01 4.085224e+00 0.000000e+00
1.499987e+01 4.085679e+00 0.000000e+00
1.599991e+01 4.086424e+00 0.000000e+00
1.699994e+01 4.086131e+00 0.000000e+00
1.799997e+01 4.085690e+00 0.000000e+00
1.899999e+01 4.085321e+00 0.000000e+00
2.000000e+01 4.085076e+00 0.000000e+00
2.100001e+01 4.084938e+00 0.000000e+00
2.200001e+01 4.084866e+00 0.000000e+00
2.300001e+01 4.084832e+00 0.000000e+00
2.400001e+01 4.084816e+00 0.000000e+00
2.500001e+01 4.084809e+00 0.000000e+00
2.600001e+01 4.084806e+00 0.000000e+00
2.700001e+01 4.084805e+00 0.000000e+00
2.800001e+01 4.084804e+00 0.000000e+00
2.900001e+01 4.084804e+00 0.000000e+00
3.000001e+01 4.084804e+00 0.000000e+00
3.100001e+01 4.084804e+00 0.000000e+00
3.200001e+01 4.084804e+00 0.000000e+00
3.300001e+01 4.084804e+00 0.000000e+00
3.400001e+01 4.084804e+00 0.000000e+00
3.500001e+01 4.084804e+00 0.000000e+00
3.600001e+01 4.084804e+00 0.000000e+00
3.700001e+01 4.084804e+00 0.000000e+00
3.800001e+01 4.084804e+00 0.000000e+00
3.900001e+01 4.084804e+00 0.000000e+00
4.000001e+01 4.084804e+00 0.000000e+00
4.100001e+01 4.084804e+00 0.000000e+00
4.200001e+01 4.084804e+00 0.000000e+00
4.300001e+01 4.084804e+00 0.000000e+00
4.400001e+01 4.084804e+00 0.000000e+00
4.500001e+01 4.084804e+00 0.000000e+00
4.600001e+01 4.084804e+00 0.000000e+00
4.700001e+01 4.084804e+00 0.000000e+00
4.800001e+01 4.084804e+00 0.000000e+00
4.900001e+01 4.084804e+00 0.000000e+00
5.000001e+01 4.084804e+00 0.000000e+00
5.100001e+01 4.084804e+00 0.000000e+00
5.200001e+01 4.084804e+00 0.000000e+00
5.300001e+01 4.084804e+00 0.000000e+00
5.400001e+01 4.084804e+00 0.000000e+00
5.500001e+01 4.084804e+00 0.000000e+00
5.600001e+01 4.084804e+00 0.000000e+00
5.700001e+01 4.084804e+00 0.000000e+00
5.800001e+01 4.084804e+00 0.000000e+00
5.900001e+01 4.084804e+00 0.000000e+00
6.000001e+01 4.084804e+00 0.000000e+00
6.100001e+01 4.084804e+00 0.000000e+00
6.200001e+01 4.084804e+00 0.000000e+00
6.300001e+01 4.084804e+00 0.000000e+00
6.400001e+01 4.084804e+00 0.000000e+00
6.500001e+01 4.084804e+00 0.000000e+00
6.600001e+01 4.084804e+00 0.000000e+00
6.700001e+01 4.084804e+00 0.000000e+00
6.800001e+01 4.084804e+00 0.000000e+00
6.900001e+01 4.084804e+00 0.000000e+00
7.000001e+01 4.084804e+00 0.000000e+00
7.100001e+01 4.084804e+00 0.000000e+00
7.200001e+01 4.084804e+00 0.000000e+00
7.300001e+01 4.084804e+00 0.000000e+00
7.400001e+01 4.084804e+00 0.000000e+00
7.500001e+01 4.084804e+00 0.000000e+00
7.600001e+01 4.084804e+00 0.000000e+00
7.700001e+01 4.084804e+00 0.000000e+00
7.800001e+01 4.084804e+00 0.000000e+00
7.900001e+01 4.084804e+00 0.000000e+00
8.000001e+01 4.084804e+00 0.000000e+00
8.100001e+01 4.084804e+00 0.000000e+00
8.200001e+01 4.084804e+00 0.000000e+00
8.300001e+01 4.084803e+00 0.000000e+00
8.400001e+01 4.084802e+00 0.000000e+00
8.500001e+01 4.084798e+00 0.000000e+00
8.600001e+01 4.084785e+00 0.000000e+00
8.700002e+01 4.084747e+00 0.000000e+00
8.800003e+01 4.084630e+00 0.000000e+00
8.900005e+01 4.084368e+00 0.000000e+00
9.000007e+01 4.084017e+00 0.000000e+00
9.100000e+01 4.083627e+00 0.000000e+00
9.199955e+01 4.082641e+00 0.000000e+00
9.299843e+01 4.079891e+00 0.000000e+00
9.399681e+01 4.074457e+00 0.000000e+00
9.499520e+01 4.066172e+00 0.000000e+00
9.599406e+01 4.055866e+00 0.000000e+00
9.199903e+01 6.063985e+00 0.000000e+00
9.299768e+01 6.061861e+00 0.000000e+00
9.599239e+01 6.046932e+00 0.000000e+00
9.599322e+01 5.052893e+00 0.000000e+00
9.099959e+01 6.064165e+00 0.000000e+00
9.399584e+01 6.058289e+00 0.000000e+00
9.499422e+01 6.052374e+00 0.000000e+00
8.999980e+01 6.064529e+00 0.000000e+00
8.899986e+01 6.064906e+00 0.000000e+00
8.799988e+01 6.065186e+00 0.000000e+00
8.699988e+01 6.065348e+00 0.000000e+00
8.599988e+01 6.065429e+00 0.000000e+00
8.499987e+01 6.065467e+00 0.000000e+00
8.399987e+01 6.065483e+00 0.000000e+00
8.299987e+01 6.065490e+00 0.000000e+00
8.199987e+01 6.065493e+00 0.000000e+00
8.099987e+01 6.065494e+00 0.000000e+00
7.999987e+01 6.065495e+00 0.000000e+00
7.899987e+01 6.065495e+00 0.000000e+00
7.799987e+01 6.065495e+00 0.000000e+00
7.699987e+01 6.065495e+00 0.000000e+00
7.599987e+01 6.065495e+00 0.000000e+00
7.499987e+01 6.065495e+00 0.000000e+00
7.399987e+01 6.065495e+00 0.000000e+00
7.299987e+01 6.065495e+00 0.000000e+00
7.199987e+01 6.065495e+00 0.000000e+00
7.099987e+01 6.065495e+00 0.000000e+00
6.999987e+01 6.065495e+00 0.000000e+00
6.899987e+01 6.065495e+00 0.000000e+00
6.799987e+01 6.065495e+00 0.000000e+00
6.699987e+01 6.065495e+00 0.000000e+00
6.599987e+01 6.065495e+00 0.000000e+00
6.499987e+01 6.065495e+00 0.000000e+00
6.399987e+01 6.065495e+00 0.000000e+00
6.299987e+01 6.065495e+00 0.000000e+00
6.199987e+01 6.065495e+00 0.000000e+00
6.099987e+01 6.065495e+00 0.000000e+00
5.999987e+01 6.065495e+00 0.000000e+00
5.899987e+01 6.065495e+00 0.000000e+00
5.799987e+01 6.065495e+00 0.000000e+00
5.699987e+01 6.065495e+00 0.000000e+00
5.599987e+01 6.065495e+00 0.000000e+00
5.499987e+01 6.065495e+00 0.000000e+00
5.399987e+01 6.065495e+00 0.000000e+00
5.299987e+01 6.065495e+00 0.000000e+00
5.199987e+01 6.065495e+00 0.000000e+00
5.099987e+01 6.065495e+00 0.000000e+00
4.999987e+01 6.065495e+00 0.000000e+00
4.899987e+01 6.065495e+00 0.000000e+00
4.799987e+01 6.065495e+00 0.000000e+00
4.699987e+01 6.065495e+00 0.000000e+00
4.599987e+01 6.065495e+00 0.000000e+00
4.499987e+01 6.065495e+00 0.000000e+00
4.399987e+01 6.065495e+00 0.000000e+00
4.299987e+01 6.065495e+00 0.000000e+00
4.199987e+01 6.065495e+00 0.000000e+00
4.099987e+01 6.065495e+00 0.000000e+00
3.999987e+01 6.065495e+00 0.000000e+00
3.899987e+01 6.065495e+00 0.000000e+00
3.799987e+01 6.065495e+00 0.000000e+00
3.699987e+01 6.065495e+00 0.000000e+00
3.599987e+01 6.065495e+00 0.000000e+00
3.499987e+01 6.065495e+00 0.000000e+00
3.399987e+01 6.065495e+00 0.000000e+00
3.299987e+01 6.065495e+00 0.000000e+00
3.199987e+01 6.065495e+00 0.000000e+00
3.099987e+01 6.065495e+00 0.000000e+00
2.999987e+01 6.065495e+00 0.000000e+00
2.899987e+01 6.065495e+00 0.000000e+00
2.799987e+01 6.065495e+00 0.000000e+00
2.699987e+01 6.065495e+00 0.000000e+00
2.599987e+01 6.065496e+00 0.000000e+00
2.499987e+01 6.065497e+00 0.000000e+00
2.399987e+01 6.065499e+00 0.000000e+00
2.299987e+01 6.065507e+00 0.000000e+00
2.199987e+01 6.065526e+00 0.000000e+00
2.099987e+01 6.065578e+00 0.000000e+00
1.999987e+01 6.065715e+00 0.000000e+00
1.899986e+01 6.066025e+00 0.000000e+00
1.799984e+01 6.066495e+00 0.000000e+00
1.699981e+01 6.066896e+00 0.000000e+00
1.599977e+01 6.066934e+00 0.000000e+00
1.499975e+01 6.065996e+00 0.000000e+00
1.399973e+01 6.065595e+00 0.000000e+00
1.299971e+01 6.066561e+00 0.000000e+00
1.199967e+01 6.067587e+00 0.000000e+00
1.099963e+01 6.067258e+00 0.000000e+00
9.999629e+00 6.066924e+00 0.000000e+00
8.999841e+00 6.066011e+00 0.000000e+00
8.000796e+00 6.063935e+00 0.000000e+00
7.002836e+00 6.060047e+00 0.000000e+00
6.005507e+00 6.054334e+00 0.000000e+00
5.007830e+00 6.046724e+00 0.000000e+00
4.009114e+00 6.038377e+00 0.000000e+00
6.007711e+00 4.070152e+00 0.000000e+00
5.010455e+00 4.059313e+00 0.000000e+00
4.011574e+00 4.047541e+00 0.000000e+00
4.010468e+00 5.044668e+00 0.000000e+00
7.004417e+00 4.074840e+00 0.000000e+00
1.199972e+01 5.081454e+00 0.000000e+00
1.099972e+01 5.079897e+00 0.000000e+00
1.299976e+01 5.079031e+00 0.000000e+00
1.599984e+01 5.080422e+00 0.000000e+00
1.499980e+01 5.078454e+00 0.000000e+00
1.699988e+01 5.079367e+00 0.000000e+00
1.799991e+01 5.078762e+00 0.000000e+00
1.899993e+01 5.078325e+00 0.000000e+00
1.999994e+01 5.078041e+00 0.000000e+00
2.099994e+01 5.077885e+00 0.000000e+00
2.199995e+01 5.077808e+00 0.000000e+00
2.299995e+01 5.077772e+00 0.000000e+00
2.399995e+01 5.077756e+00 0.000000e+00
2.499995e+01 5.077750e+00 0.000000e+00
2.599995e+01 5.077747e+00 0.000000e+00
2.699995e+01 5.077745e+00 0.000000e+00
2.799995e+01 5.077745e+00 0.000000e+00
2.899995e+01 5.077745e+00 0.000000e+00
2.999995e+01 5.077745e+00 0.000000e+00
3.099995e+01 5.077745e+00 0.000000e+00
3.199995e+01 5.077745e+00 0.000000e+00
3.299995e+01 5.077745e+00 0.000000e+00
3.399995e+01 5.077745e+00 0.000000e+00
3.499995e+01 5.077745e+00 0.000000e+00
3.599995e+01 5.077745e+00 0.000000e+00
3.699995e+01 5.077745e+00 0.000000e+00
3.799995e+01 5.077745e+00 0.000000e+00
3.899995e+01 5.077745e+00 0.000000e+00
3.999995e+01 5.077745e+00 0.000000e+00
4.099995e+01 5.077745e+00 0.000000e+00
4.199995e+01 5.077745e+00 0.000000e+00
4.299995e+01 5.077745e+00 0.000000e+00
4.399995e+01 5.077745e+00 0.000000e+00
4.499995e+01 5.077745e+00 0.000000e+00
4.599995e+01 5.077745e+00 0.000000e+00
4.699995e+01 5.077745e+00 0.000000e+00
4.799995e+01 5.077745e+00 0.000000e+00
4.899995e+01 5.077745e+00 0.000000e+00
4.999995e+01 5.077745e+00 0.000000e+00
5.099995e+01 5.077745e+00 0.000000e+00
5.199995e+01 5.077745e+00 0.000000e+00
5.299995e+01 5.077745e+00 0.000000e+00
5.399995e+01 5.077745e+00 0.000000e+00
5.499995e+01 5.077745e+00 0.000000e+00
5.599995e+01 5.077745e+00 0.000000e+00
5.699995e+01 5.077745e+00 0.000000e+00
5.799995e+01 5.077745e+00 0.000000e+00
5.899995e+01 5.077745e+00 0.000000e+00
5.999995e+01 5.077745e+00 0.000000e+00
6.099995e+01 5.077745e+00 0.000000e+00
6.199995e+01 5.077745e+00 0.000000e+00
6.299995e+01 5.077745e+00 0.000000e+00
6.399995e+01 5.077745e+00 0.000000e+00
6.499995e+01 5.077745e+00 0.000000e+00
6.599995e+01 5.077745e+00 0.000000e+00
6.699995e+01 5.077745e+00 0.000000e+00
6.799995e+01 5.077745e+00 0.000000e+00
6.899995e+01 5.077745e+00 0.000000e+00
6.999995e+01 5.077745e+00 0.000000e+00
7.099995e+01 5.077745e+00 0.000000e+00
7.199995e+01 5.077745e+00 0.000000e+00
7.299995e+01 5.077745e+00 0.000000e+00
7.399995e+01 5.077745e+00 0.000000e+00
7.499995e+01 5.077745e+00 0.000000e+00
7.599995e+01 5.077745e+00 0.000000e+00
7.699995e+01 5.077745e+00 0.000000e+00
7.799995e+01 5.077745e+00 0.000000e+00
7.899995e+01 5.077745e+00 0.000000e+00
7.999995e+01 5.077745e+00 0.000000e+00
8.099995e+01 5.077744e+00 0.000000e+00
8.199995e+01 5.077744e+00 0.000000e+00
8.299995e+01 5.077742e+00 0.000000e+00
8.399995e+01 5.077737e+00 0.000000e+00
8.499995e+01 5.077726e+00 0.000000e+00
8.599995e+01 5.077696e+00 0.000000e+00
8.699996e+01 5.077620e+00 0.000000e+00
8.799996e+01 5.077446e+00 0.000000e+00
8.899997e+01 5.077148e+00 0.000000e+00
8.999994e+01 5.076789e+00 0.000000e+00
9.099974e+01 5.076349e+00 0.000000e+00
9.199910e+01 5.075366e+00 0.000000e+00
9.299781e+01 5.072640e+00 0.000000e+00
9.399614e+01 5.067611e+00 0.000000e+00
9.499469e+01 5.059765e+00 0.000000e+00
1.399978e+01 5.077060e+00 0.000000e+00
9.999809e+00 5.079647e+00 0.000000e+00
9.000328e+00 5.077962e+00 0.000000e+00
8.001723e+00 5.074792e+00 0.000000e+00
7.004073e+00 5.069515e+00 0.000000e+00
6.006840e+00 5.062934e+00 0.000000e+00
5.008899e+00 5.053414e+00 0.000000e+00
CELLS 1000 5000
4 0 4 220 219
4 4 5 221 220
4 5 6 222 221
4 6 7 223 222
4 7 8 224 223
4 8 9 225 224
4 9 10 226 225
4 10 11 227 226
4 11 12 228 227
4 12 13 229 228
4 13 14 230 229
4 14 15 231 230
4 15 16 232 231
4 16 17 233 232
4 17 18 234 233
4 18 19 235 234
4 19 20 236 235
4 20 21 237 236
4 21 22 238 237
4 22 23 239 238
4 23 24 240 239
4 24 25 241 240
4 25 26 242 241
4 26 27 243 242
4 27 28 244 243
4 28 29 245 244
4 29 30 246 245
4 30 31 247 246
4 31 32 248 247
4 32 33 249 248
4 33 34 250 249
4 34 35 251 250
4 35 36 252 251
4 36 37 253 252
4 37 38 254 253
4 38 39 255 254
4 39 40 256 255
4 40 41 257 256
4 41 42 258 257
4 42 43 259 258
4 43 44 260 259
4 44 45 261 260
4 45 46 262 261
4 46 47 263 262
4 47 48 264 263
4 48 49 265 264
4 49 50 266 265
4 50 51 267 266
4 51 52 268 267
4 52 53 269 268
4 53 54 270 269
4 54 55 271 270
4 55 56 272 271
4 56 57 273 272
4 57 58 274 273
4 58 59 275 274
4 59 60 276 275
4 60 61 277 276
4 61 62 278 277
4 62 63 279 278
4 63 64 280 279
4 64 65 281 280
4 65 66 282 281
4 66 67 283 282
4 67 68 284 283
4 68 69 285 284
4 69 70 286 285
4 70 71 287 286
4 71 72 288 287
4 72 73 289 288
4 73 74 290 289
4 74 75 291 290
4 75 76 292 291
4 76 77 293 292
4 77 78 294 293
4 78 79 295 294
4 79 80 296 295
4 80 81 297 296
4 81 82 298 297
4 82 83 299 298
4 83 84 300 299
4 84 85 301 300
4 85 86 302 301
4 86 87 303 302
4 87 88 304 303
4 88 89 305 304
4 89 90 306 305
4 90 91 307 306
4 91 92 308 307
4 92 93 309 308
4 93 94 310 309
4 94 95 311 310
4 95 96 312 311
4 96 97 313 312
4 97 98 314 313
4 98 99 315 314
4 99 100 316 315
4 100 101 317 316
4 101 102 318 317
4 102 1 103 318
4 103 104 319 318
4 104 105 320 319
4 105 106 321 320
4 106 107 322 321
4 107 108 323 322
4 108 109 324 323
4 109 110 325 324
4 110 111 326 325
4 111 2 112 326
4 112 113 327 326
4 113 114 328 327
4 114 115 329 328
4 115 116 330 329
4 116 117 331 330
4 117 118 332 331
4 118 119 333 332
4 119 120 334 333
4 120 121 335 334
4 121 122 336 335
4 122 123 337 336
4 123 124 338 337
4 124 125 339 338
4 125 126 340 339
4 126 127 341 340
4 127 128 342 341
4 128 129 343 342
4 129 130 344 343
4 130 131 345 344
4 131 132 346 345
4 132 133 347 346
4 133 134 348 347
4 134 135 349 348
4 135 136 350 349
4 136 137 351 350
4 137 138 352 351
4 138 139 353 352
4 139 140 354 353
4 140 141 355 354
4 141 142 356 355
4 142 143 357 356
4 143 144 358 357
4 144 145 359 358
4 145 146 360 359
4 146 147 361 360
4 147 148 362 361
4 148 149 363 362
4 149 150 364 363
4 150 151 365 364
4 151 152 366 365
4 152 153 367 366
4 153 154 368 367
4 154 155 369 368
4 155 156 370 369
4 156 157 371 370
4 157 158 372 371
4 158 159 373 372
4 159 160 374 373
4 160 161 375 374
4 161 162 376 375
4 162 163 377 376
4 163 164 378 377
4 164 165 379 378
4 165 166 380 379
4 166 167 381 380
4 167 168 382 381
4 168 169 383 382
4 169 170 384 383
4 170 171 385 384
4 171 172 386 385
4 172 173 387 386
4 173 174 388 387
4 174 175 389 388
4 175 176 390 389
4 176 177 391 390
4 177 178 392 391
4 178 179 393 392
4 179 180 394 393
4 180 181 395 394
4 181 182 396 395
4 182 183 397 396
4 183 184 398 397
4 184 185 399 398
4 185 186 400 399
4 186 187 401 400
4 187 188 402 401
4 188 189 403 402
4 189 190 404 403
4 190 191 405 404
4 191 192 406 405
4 192 193 407 406
4 193 194 408 407
4 194 195 409 408
4 195 196 410 409
4 196 197 411 410
4 197 198 412 411
4 198 199 413 412
4 199 200 414 413
4 200 201 415 414
4 201 202 416 415
4 202 203 417 416
4 203 204 418 417
4 204 205 419 418
4 205 206 420 419
4 206 207 421 420
4 207 208 422 421
4 208 209 423 422
4 209 210 424 423
4 210 3 211 424
4 211 212 425 424
4 212 213 426 425
4 213 214 427 426
4 214 215 428 427
4 215 216 429 428
4 216 217 430 429
4 217 218 431 430
4 218 219 220 431
4 222 223 432 433
4 223 224 434 432
4 224 225 435 434
4 225 226 436 435
4 226 227 437 436
4 227 228 438 437
4 228 229 439 438
4 229 230 440 439
4 230 231 441 440
4 231 232 442 441
4 232 233 443 442
4 233 234 444 443
4 234 235 445 444
4 235 236 446 445
4 236 237 447 446
4 237 238 448 447
4 238 239 449 448
4 239 240 450 449
4 240 241 451 450
4 241 242 452 451
4 242 243 453 452
4 243 244 454 453
4 244 245 455 454
4 245 246 456 455
4 246 247 457 456
4 247 248 458 457
4 248 249 459 458
4 249 250 460 459
4 250 251 461 460
4 251 252 462 461
4 252 253 463 462
4 253 254 464 463
4 254 255 465 464
4 255 256 466 465
4 256 257 467 466
4 257 258 468 467
4 258 259 469 468
4 259 260 470 469
4 260 261 471 470
4 261 262 472 471
4 262 263 473 472
4 263 264 474 473
4 264 265 475 474
4 265 266 476 475
4 266 267 477 476
4 267 268 478 477
4 268 269 479 478
4 269 270 480 479
4 270 271 481 480
4 271 272 482 481
4 272 273 483 482
4 273 274 484 483
4 274 275 485 484
4 275 276 486 485
4 276 277 487 486
4 277 278 488 487
4 278 279 489 488
4 279 280 490 489
4 280 281 491 490
4 281 282 492 491
4 282 283 493 492
4 283 284 494 493
4 284 285 495 494
4 285 286 496 495
4 286 287 497 496
4 287 288 498 497
4 288 289 499 498
4 289 290 500 499
4 290 291 501 500
4 291 292 502 501
4 292 293 503 502
4 293 294 504 503
4 294 295 505 504
4 295 296 506 505
4 296 297 507 506
4 297 298 508 507
4 298 299 509 508
4 299 300 510 509
4 300 301 511 510
4 301 302 512 511
4 302 303 513 512
4 303 304 514 513
4 304 305 515 514
4 305 306 516 515
4 306 307 517 516
4 307 308 518 517
4 308 309 519 518
4 309 310 520 519
4 310 311 521 520
4 311 312 522 521
4 312 313 523 522
4 313 314 524 523
4 314 315 525 524
4 315 316 526 525
4 316 317 527 526
4 317 318 319 527
4 319 320 528 527
4 320 321 529 528
4 321 322 530 529
4 322 323 531 530
4 323 324 532 531
4 324 325 533 532
4 325 326 327 533
4 327 328 534 533
4 328 329 535 534
4 329 330 536 535
4 330 331 537 536
4 331 332 538 537
4 332 333 539 538
4 333 334 540 539
4 334 335 541 540
4 335 336 542 541
4 336 337 543 542
4 337 338 544 543
4 338 339 545 544
4 339 340 546 545
4 340 341 547 546
4 341 342 548 547
4 342 343 549 548
4 343 344 550 549
4 344 345 551 550
4 345 346 552 551
4 346 347 553 552
4 347 348 554 553
4 348 349 555 554
4 349 350 556 555
4 350 351 557 556
4 351 352 558 557
4 352 353 559 558
4 353 354 560 559
4 354 355 561 560
4 355 356 562 561
4 356 357 563 562
4 357 358 564 563
4 358 359 565 564
4 359 360 566 565
4 360 361 567 566
4 361 362 568 567
4 362 363 569 568
4 363 364 570 569
4 364 365 571 570
4 365 366 572 571
4 366 367 573 572
4 367 368 574 573
4 368 369 575 574
4 369 370 576 575
4 370 371 577 576
4 371 372 578 577
4 372 373 579 578
4 373 374 580 579
4 374 375 581 580
4 375 376 582 581
4 376 377 583 582
4 377 378 584 583
4 378 379 585 584
4 379 380 586 585
4 380 381 587 586
4 381 382 588 587
4 382 383 589 588
4 383 384 590 589
4 384 385 591 590
4 385 386 592 591
4 386 387 593 592
4 387 388 594 593
4 388 389 595 594
4 389 390 596 595
4 390 391 597 596
4 391 392 598 597
4 392 393 599 598
4 393 394 600 599
4 394 395 601 600
4 395 396 602 601
4 396 397 603 602
4 397 398 604 603
4 398 399 605 604
4 399 400 606 605
4 400 401 607 606
4 401 402 608 607
4 402 403 609 608
4 403 404 610 609
4 404 405 611 610
4 405 406 612 611
4 406 407 613 612
4 407 408 614 613
4 408 409 615 614
4 409 410 616 615
4 410 411 617 616
4 411 412 618 617
4 412 413 619 618
4 413 414 620 619
4 414 415 621 620
4 415 416 622 621
4 416 417 623 622
4 417 418 624 623
4 418 419 625 624
4 419 420 626 625
4 420 421 627 626
4 421 422 628 627
4 422 423 629 628
4 423 424 425 629
4 425 426 630 629
4 426 427 631 630
4 427 428 632 631
4 428 429 633 632
4 429 430 634 633
4 430 431 635 634
4 431 220 221 635
4 221 222 433 635
4 432 434 636 637
4 436 437 638 639
4 437 438 640 638
4 438 439 641 640
4 439 440 642 641
4 440 441 643 642
4 441 442 644 643
4 442 443 645 644
4 443 444 646 645
4 444 445 647 646
4 445 446 648 647
4 446 447 649 648
4 447 448 650 649
4 448 449 651 650
4 449 450 652 651
4 450 451 653 652
4 451 452 654 653
4 452 453 655 654
4 453 454 656 655
4 454 455 657 656
4 455 456 658 657
4 456 457 659 658
4 457 458 660 659
4 458 459 661 660
4 459 460 662 661
4 460 461 663 662
4 461 462 664 663
4 462 463 665 664
4 463 464 666 665
4 464 465 667 666
4 465 466 668 667
4 466 467 669 668
4 467 468 670 669
4 468 469 671 670
4 469 470 672 671
4 470 471 673 672
4 471 472 674 673
4 472 473 675 674
4 473 474 676 675
4 474 475 677 676
4 475 476 678 677
4 476 477 679 678
4 477 478 680 679
4 478 479 681 680
4 479 480 682 681
4 480 481 683 682
4 481 482 684 683
4 482 483 685 684
4 483 484 686 685
4 484 485 687 686
4 485 486 688 687
4 486 487 689 688
4 487 488 690 689
4 488 489 691 690
4 489 490 692 691
4 490 491 693 692
4 491 492 694 693
4 492 493 695 694
4 493 494 696 695
4 494 495 697 696
4 495 496 698 697
4 496 497 699 698
4 497 498 700 699
4 498 499 701 700
4 499 500 702 701
4 500 501 703 702
4 501 502 704 703
4 502 503 705 704
4 503 504 706 705
4 504 505 707 706
4 505 506 708 707
4 506 507 709 708
4 507 508 710 709
4 508 509 711 710
4 509 510 712 711
4 510 511 713 712
4 511 512 714 713
4 512 513 715 714
4 513 514 716 715
4 514 515 717 716
4 515 516 718 717
4 516 517 719 718
4 517 518 720 719
4 518 519 721 720
4 519 520 722 721
4 520 521 723 722
4 521 522 724 723
4 522 523 725 724
4 523 524 726 725
4 524 525 727 726
4 525 526 728 727
4 526 527 528 728
4 528 529 729 728
4 530 531 730 731
4 529 530 731 729
4 531 532 732 730
4 532 533 534 732
4 534 535 733 732
4 536 537 734 735
4 535 536 735 733
4 537 538 736 734
4 538 539 737 736
4 539 540 738 737
4 540 541 739 738
4 541 542 740 739
4 542 543 741 740
4 543 544 742 741
4 544 545 743 742
4 545 546 744 743
4 546 547 745 744
4 547 548 746 745
4 548 549 747 746
4 549 550 748 747
4 550 551 749 748
4 551 552 750 749
4 552 553 751 750
4 553 554 752 751
4 554 555 753 752
4 555 556 754 753
4 556 557 755 754
4 557 558 756 755
4 558 559 757 756
4 559 560 758 757
4 560 561 759 758
4 561 562 760 759
4 562 563 761 760
4 563 564 762 761
4 564 565 763 762
4 565 566 764 763
4 566 567 765 764
4 567 568 766 765
4 568 569 767 766
4 569 570 768 767
4 570 571 769 768
4 571 572 770 769
4 572 573 771 770
4 573 574 772 771
4 574 575 773 772
4 575 576 774 773
4 576 577 775 774
4 577 578 776 775
4 578 579 777 776
4 579 580 778 777
4 580 581 779 778
4 581 582 780 779
4 582 583 781 780
4 583 584 782 781
4 584 585 783 782
4 585 586 784 783
4 586 587 785 784
4 587 588 786 785
4 588 589 787 786
4 589 590 788 787
4 590 591 789 788
4 591 592 790 789
4 592 593 791 790
4 593 594 792 791
4 594 595 793 792
4 595 596 794 793
4 596 597 795 794
4 597 598 796 795
4 598 599 797 796
4 599 600 798 797
4 600 601 799 798
4 601 602 800 799
4 602 603 801 800
4 603 604 802 801
4 604 605 803 802
4 605 606 804 803
4 606 607 805 804
4 607 608 806 805
4 608 609 807 806
4 609 610 808 807
4 610 611 809 808
4 611 612 810 809
4 612 613 811 810
4 613 614 812 811
4 614 615 813 812
4 615 616 814 813
4 616 617 815 814
4 617 618 816 815
4 618 619 817 816
4 619 620 818 817
4 620 621 819 818
4 621 622 820 819
4 622 623 821 820
4 623 624 822 821
4 624 625 823 822
4 625 626 824 823
4 626 627 825 824
4 627 628 826 825
4 628 629 630 826
4 630 631 827 826
4 632 633 828 829
4 631 632 829 827
4 633 634 830 828
4 634 635 433 830
4 434 435 831 636
4 435 436 639 831
4 433 432 637 830
4 640 641 832 833
4 638 640 833 834
4 642 643 835 836
4 643 644 837 835
4 644 645 838 837
4 645 646 839 838
4 646 647 840 839
4 647 648 841 840
4 648 649 842 841
4 649 650 843 842
4 650 651 844 843
4 651 652 845 844
4 652 653 846 845
4 653 654 847 846
4 654 655 848 847
4 655 656 849 848
4 656 657 850 849
4 657 658 851 850
4 658 659 852 851
4 659 660 853 852
4 660 661 854 853
4 661 662 855 854
4 662 663 856 855
4 663 664 857 856
4 664 665 858 857
4 665 666 859 858
4 666 667 860 859
4 667 668 861 860
4 668 669 862 861
4 669 670 863 862
4 670 671 864 863
4 671 672 865 864
4 672 673 866 865
4 673 674 867 866
4 674 675 868 867
4 675 676 869 868
4 676 677 870 869
4 677 678 871 870
4 678 679 872 871
4 679 680 873 872
4 680 681 874 873
4 681 682 875 874
4 682 683 876 875
4 683 684 877 876
4 684 685 878 877
4 685 686 879 878
4 686 687 880 879
4 687 688 881 880
4 688 689 882 881
4 689 690 883 882
4 690 691 884 883
4 691 692 885 884
4 692 693 886 885
4 693 694 887 886
4 694 695 888 887
4 695 696 889 888
4 696 697 890 889
4 697 698 891 890
4 698 699 892 891
4 699 700 893 892
4 700 701 894 893
4 701 702 895 894
4 702 703 896 895
4 703 704 897 896
4 704 705 898 897
4 705 706 899 898
4 706 707 900 899
4 707 708 901 900
4 708 709 902 901
4 709 710 903 902
4 710 711 904 903
4 711 712 905 904
4 712 713 906 905
4 713 714 907 906
4 714 715 908 907
4 715 716 909 908
4 716 717 910 909
4 717 718 911 910
4 718 719 912 911
4 719 720 913 912
4 720 721 914 913
4 721 722 915 914
4 722 723 916 915
4 723 724 917 916
4 724 725 918 917
4 725 726 919 918
4 726 727 920 919
4 727 728 729 920
4 736 737 921 922
4 732 733 923 730
4 731 730 923 924
4 729 731 924 920
4 737 738 925 921
4 735 734 926 927
4 734 736 922 926
4 733 735 927 923
4 738 739 928 925
4 739 740 929 928
4 740 741 930 929
4 741 742 931 930
4 742 743 932 931
4 743 744 933 932
4 744 745 934 933
4 745 746 935 934
4 746 747 936 935
4 747 748 937 936
4 748 749 938 937
4 749 750 939 938
4 750 751 940 939
4 751 752 941 940
4 752 753 942 941
4 753 754 943 942
4 754 755 944 943
4 755 756 945 944
4 756 757 946 945
4 757 758 947 946
4 758 759 948 947
4 759 760 949 948
4 760 761 950 949
4 761 762 951 950
4 762 763 952 951
4 763 764 953 952
4 764 765 954 953
4 765 766 955 954
4 766 767 956 955
4 767 768 957 956
4 768 769 958 957
4 769 770 959 958
4 770 771 960 959
4 771 772 961 960
4 772 773 962 961
4 773 774 963 962
4 774 775 964 963
4 775 776 965 964
4 776 777 966 965
4 777 778 967 966
4 778 779 968 967
4 779 780 969 968
4 780 781 970 969
4 781 782 971 970
4 782 783 972 971
4 783 784 973 972
4 784 785 974 973
4 785 786 975 974
4 786 787 976 975
4 787 788 977 976
4 788 789 978 977
4 789 790 979 978
4 790 791 980 979
4 791 792 981 980
4 792 793 982 981
4 793 794 983 982
4 794 795 984 983
4 795 796 985 984
4 796 797 986 985
4 797 798 987 986
4 798 799 988 987
4 799 800 989 988
4 800 801 990 989
4 801 802 991 990
4 802 803 992 991
4 803 804 993 992
4 804 805 994 993
4 805 806 995 994
4 806 807 996 995
4 807 808 997 996
4 808 809 998 997
4 809 810 999 998
4 810 811 1000 999
4 811 812 1001 1000
4 812 813 1002 1001
4 813 814 1003 1002
4 814 815 1004 1003
4 815 816 1005 1004
4 816 817 1006 1005
4 817 818 1007 1006
4 818 819 1008 1007
4 819 820 1009 1008
4 820 821 1010 1009
4 821 822 1011 1010
4 822 823 1012 1011
4 823 824 1013 1012
4 824 825 1014 1013
4 825 826 827 1014
4 636 831 1015 1016
4 829 828 1017 1018
4 828 830 637 1017
4 827 829 1018 1014
4 831 639 1019 1015
4 641 642 836 832
4 637 636 1016 1017
4 639 638 834 1019
4 836 835 1020 1021
4 835 837 1022 1020
4 839 840 1023 1024
4 840 841 1025 1023
4 841 842 1026 1025
4 842 843 1027 1026
4 843 844 1028 1027
4 844 845 1029 1028
4 845 846 1030 1029
4 846 847 1031 1030
4 847 848 1032 1031
4 848 849 1033 1032
4 849 850 1034 1033
4 850 851 1035 1034
4 851 852 1036 1035
4 852 853 1037 1036
4 853 854 1038 1037
4 854 855 1039 1038
4 855 856 1040 1039
4 856 857 1041 1040
4 857 858 1042 1041
4 858 859 1043 1042
4 859 860 1044 1043
4 860 861 1045 1044
4 861 862 1046 1045
4 862 863 1047 1046
4 863 864 1048 1047
4 864 865 1049 1048
4 865 866 1050 1049
4 866 867 1051 1050
4 867 868 1052 1051
4 868 869 1053 1052
4 869 870 1054 1053
4 870 871 1055 1054
4 871 872 1056 1055
4 872 873 1057 1056
4 873 874 1058 1057
4 874 875 1059 1058
4 875 876 1060 1059
4 876 877 1061 1060
4 877 878 1062 1061
4 878 879 1063 1062
4 879 880 1064 1063
4 880 881 1065 1064
4 881 882 1066 1065
4 882 883 1067 1066
4 883 884 1068 1067
4 884 885 1069 1068
4 885 886 1070 1069
4 886 887 1071 1070
4 887 888 1072 1071
4 888 889 1073 1072
4 889 890 1074 1073
4 890 891 1075 1074
4 891 892 1076 1075
4 892 893 1077 1076
4 893 894 1078 1077
4 894 895 1079 1078
4 895 896 1080 1079
4 896 897 1081 1080
4 897 898 1082 1081
4 898 899 1083 1082
4 899 900 1084 1083
4 900 901 1085 1084
4 901 902 1086 1085
4 902 903 1087 1086
4 903 904 1088 1087
4 904 905 1089 1088
4 905 906 1090 1089
4 906 907 1091 1090
4 907 908 1092 1091
4 908 909 1093 1092
4 909 910 1094 1093
4 910 911 1095 1094
4 911 912 1096 1095
4 912 913 1097 1096
4 913 914 1098 1097
4 914 915 1099 1098
4 915 916 1100 1099
4 916 917 1101 1100
4 917 918 1102 1101
4 918 919 1103 1102
4 919 920 924 1103
4 921 925 1099 1100
4 923 927 1103 924
4 928 929 1097 1098
4 929 930 1096 1097
4 927 926 1102 1103
4 926 922 1101 1102
4 930 931 1095 1096
4 931 932 1094 1095
4 932 933 1093 1094
4 933 934 1092 1093
4 934 935 1091 1092
4 935 936 1090 1091
4 936 937 1089 1090
4 937 938 1088 1089
4 938 939 1087 1088
4 939 940 1086 1087
4 940 941 1085 1086
4 941 942 1084 1085
4 942 943 1083 1084
4 943 944 1082 1083
4 944 945 1081 1082
4 945 946 1080 1081
4 946 947 1079 1080
4 947 948 1078 1079
4 948 949 1077 1078
4 949 950 1076 1077
4 950 951 1075 1076
4 951 952 1074 1075
4 952 953 1073 1074
4 953 954 1072 1073
4 954 955 1071 1072
4 955 956 1070 1071
4 956 957 1069 1070
4 957 958 1068 1069
4 958 959 1067 1068
4 959 960 1066 1067
4 960 961 1065 1066
4 961 962 1064 1065
4 963 964 1062 1063
4 964 965 1061 1062
4 965 966 1060 1061
4 966 967 1059 1060
4 967 968 1058 1059
4 968 969 1057 1058
4 969 970 1056 1057
4 971 972 1054 1055
4 973 974 1052 1053
4 974 975 1051 1052
4 975 976 1050 1051
4 976 977 1049 1050
4 977 978 1048 1049
4 978 979 1047 1048
4 979 980 1046 1047
4 980 981 1045 1046
4 981 982 1044 1045
4 982 983 1043 1044
4 983 984 1042 1043
4 984 985 1041 1042
4 985 986 1040 1041
4 986 987 1039 1040
4 987 988 1038 1039
4 988 989 1037 1038
4 989 990 1036 1037
4 990 991 1035 1036
4 991 992 1034 1035
4 992 993 1033 1034
4 993 994 1032 1033
4 994 995 1031 1032
4 995 996 1030 1031
4 996 997 1029 1030
4 997 998 1028 1029
4 998 999 1027 1028
4 999 1000 1026 1027
4 1000 1001 1025 1026
4 1001 1002 1023 1025
4 1002 1003 1024 1023
4 1003 1004 1104 1024
4 1004 1005 1022 1104
4 1005 1006 1020 1022
4 1006 1007 1021 1020
4 1007 1008 1105 1021
4 1008 1009 1106 1105
4 1009 1010 1107 1106
4 1010 1011 1108 1107
4 1011 1012 1109 1108
4 1012 1013 1110 1109
4 1013 1014 1018 1110
4 1015 1019 1108 1109
4 1107 834 833 1106
4 1018 1017 1016 1110
4 1016 1015 1109 1110
4 1019 834 1107 1108
4 838 839 1024 1104
4 973 1053 1054 972
4 971 1055 1056 970
4 1064 962 963 1063
4 1101 922 921 1100
4 925 928 1098 1099
4 838 1104 1022 837
4 832 836 1021 1105
4 832 1105 1106 833
CELL_TYPES 1000
9
9
9
9
9
9
9
9
9
9
9
9
9
9
9
9
9
9
9
9
9
9
9
9
9
9
9
9
9
9
9
9
9
9
9
9
9
9
9
9
9
9
9
9
9
9
9
9
9
9
9
9
9
9
9
9
9
9
9
9
9
9
9
9
9
9
9
9
9
9
9
9
9
9
9
9
9
9
9
9
9
9
9
9
9
9
9
9
9
9
9
9
9
9
9
9
9
9
9
9
9
9
9
9
9
9
9
9
9
9
9
9
9
9
9
9
9
9
9
9
9
9
9
9
9
9
9
9
9
9
9
9
9
9
9
9
9
9
9
9
9
9
9
9
9
9
9
9
9
9
9
9
9
9
9
9
9
9
9
9
9
9
9
9
9
9
9
9
9
9
9
9
9
9
9
9
9
9
9
9
9
9
9
9
9
9
9
9
9
9
9
9
9
9
9
9
9
9
9
9
9
9
9
9
9
9
9
9
9
9
9
9
9
9
9
9
9
9
9
9
9
9
9
9
9
9
9
9
9
9
9
9
9
9
9
9
9
9
9
9
9
9
9
9
9
9
9
9
9
9
9
9
9
9
9
9
9
9
9
9
9
9
9
9
9
9
9
9
9
9
9
9
9
9
9
9
9
9
9
9
9
9
9
9
9
9
9
9
9
9
9
9
9
9
9
9
9
9
9
9
9
9
9
9
9
9
9
9
9
9
9
9
9
9
9
9
9
9
9
9
9
9
9
9
9
9
9
9
9
9
9
9
9
9
9
9
9
9
9
9
9
9
9
9
9
9
9
9
9
9
9
9
9
9
9
9
9
9
9
9
9
9
9
9
9
9
9
9
9
9
9
9
9
9
9
9
9
9
9
9
9
9
9
9
9
9
9
9
9
9
9
9
9
9
9
9
9
9
9
9
9
9
9
9
9
9
9
9
9
9
9
9
9
9
9
9
9
9
9
9
9
9
9
9
9
9
9
9
9
9
9
9
9
9
9
9
9
9
9
9
9
9
9
9
9
9
9
9
9
9
9
9
9
9
9
9
9
9
9
9
9
9
9
9
9
9
9
9
9
9
9
9
9
9
9
9
9
9
9
9
9
9
9
9
9
9
9
9
9
9
9
9
9
9
9
9
9
9
9
9
9
9
9
9
9
9
9
9
9
9
9
9
9
9
9
9
9
9
9
9
9
9
9
9
9
9
9
9
9
9
9
9
9
9
9
9
9
9
9
9
9
9
9
9
9
9
9
9
9
9
9
9
9
9
9
9
9
9
9
9
9
9
9
9
9
9
9
9
9
9
9
9
9
9
9
9
9
9
9
9
9
9
9
9
9
9
9
9
9
9
9
9
9
9
9
9
9
9
9
9
9
9
9
9
9
9
9
9
9
9
9
9
9
9
9
9
9
9
9
9
9
9
9
9
9
9
9
9
9
9
9
9
9
9
9
9
9
9
9
9
9
9
9
9
9
9
9
9
9
9
9
9
9
9
9
9
9
9
9
9
9
9
9
9
9
9
9
9
9
9
9
9
9
9
9
9
9
9
9
9
9
9
9
9
9
9
9
9
9
9
9
9
9
9
9
9
9
9
9
9
9
9
9
9
9
9
9
9
9
9
9
9
9
9
9
9
9
9
9
9
9
9
9
9
9
9
9
9
9
9
9
9
9
9
9
9
9
9
9
9
9
9
9
9
9
9
9
9
9
9
9
9
9
9
9
9
9
9
9
9
9
9
9
9
9
9
9
9
9
9
9
9
9
9
9
9
9
9
9
9
9
9
9
9
9
9
9
9
9
9
9
9
9
9
9
9
9
9
9
9
9
9
9
9
9
9
9
9
9
9
9
9
9
9
9
9
9
9
9
9
9
9
9
9
9
9
9
9
9
9
9
9
9
9
9
9
9
9
9
9
9
9
9
9
9
9
9
9
9
9
9
9
9
9
9
9
9
9
9
9
9
9
9
9
9
9
9
9
9
9
9
9
9
9
9
9
9
9
9
9
9
9
9
9
9
9
9
9
9
9
9
9
9
9
9
9
9
9
9
9
9
9
9
9
9
9
9
9
9
9
9
9
9
9
9
9
9
9
9
9
9
9
9
9
9
9
9
9
9
9
9
9
9
9
9
9
9
9
9
9
9
9
9
9
9
9
9
9
9
9
9
9
9
9
9
9
9
9
9
9
9
9
9
9
9
9
9
9
9
9
9
9
9
9
9
9
9
9
9
9
9
9
9
9
9
9
9
9
9
9
9
9
9
9
9
9
9
9
9
9
