# vtk DataFile Version 3.0
FEM_LIB
ASCII
DATASET UNSTRUCTURED_GRID
POINTS 121 double
0.000000e+00 0.000000e+00 0.000000e+00
1.000000e-01 0.000000e+00 0.000000e+00
2.000000e-01 0.000000e+00 0.000000e+00
3.000000e-01 0.000000e+00 0.000000e+00
4.000000e-01 0.000000e+00 0.000000e+00
5.000000e-01 0.000000e+00 0.000000e+00
6.000000e-01 0.000000e+00 0.000000e+00
7.000000e-01 0.000000e+00 0.000000e+00
8.000000e-01 0.000000e+00 0.000000e+00
9.000000e-01 0.000000e+00 0.000000e+00
1.000000e+00 0.000000e+00 0.000000e+00
0.000000e+00 1.000000e-01 0.000000e+00
1.000000e-01 1.000000e-01 0.000000e+00
2.000000e-01 1.000000e-01 0.000000e+00
3.000000e-01 1.000000e-01 0.000000e+00
4.000000e-01 1.000000e-01 0.000000e+00
5.000000e-01 1.000000e-01 0.000000e+00
6.000000e-01 1.000000e-01 0.000000e+00
7.000000e-01 1.000000e-01 0.000000e+00
8.000000e-01 1.000000e-01 0.000000e+00
9.000000e-01 1.000000e-01 0.000000e+00
1.000000e+00 1.000000e-01 0.000000e+00
0.000000e+00 2.000000e-01 0.000000e+00
1.000000e-01 2.000000e-01 0.000000e+00
2.000000e-01 2.000000e-01 0.000000e+00
3.000000e-01 2.000000e-01 0.000000e+00
4.000000e-01 2.000000e-01 0.000000e+00
5.000000e-01 2.000000e-01 0.000000e+00
6.000000e-01 2.000000e-01 0.000000e+00
7.000000e-01 2.000000e-01 0.000000e+00
8.000000e-01 2.000000e-01 0.000000e+00
9.000000e-01 2.000000e-01 0.000000e+00
1.000000e+00 2.000000e-01 0.000000e+00
0.000000e+00 3.000000e-01 0.000000e+00
1.000000e-01 3.000000e-01 0.000000e+00
2.000000e-01 3.000000e-01 0.000000e+00
3.000000e-01 3.000000e-01 0.000000e+00
4.000000e-01 3.000000e-01 0.000000e+00
5.000000e-01 3.000000e-01 0.000000e+00
6.000000e-01 3.000000e-01 0.000000e+00
7.000000e-01 3.000000e-01 0.000000e+00
8.000000e-01 3.000000e-01 0.000000e+00
9.000000e-01 3.000000e-01 0.000000e+00
1.000000e+00 3.000000e-01 0.000000e+00
0.000000e+00 4.000000e-01 0.000000e+00
1.000000e-01 4.000000e-01 0.000000e+00
2.000000e-01 4.000000e-01 0.000000e+00
3.000000e-01 4.000000e-01 0.000000e+00
4.000000e-01 4.000000e-01 0.000000e+00
5.000000e-01 4.000000e-01 0.000000e+00
6.000000e-01 4.000000e-01 0.000000e+00
7.000000e-01 4.000000e-01 0.000000e+00
8.000000e-01 4.000000e-01 0.000000e+00
9.000000e-01 4.000000e-01 0.000000e+00
1.000000e+00 4.000000e-01 0.000000e+00
0.000000e+00 5.000000e-01 0.000000e+00
1.000000e-01 5.000000e-01 0.000000e+00
2.000000e-01 5.000000e-01 0.000000e+00
3.000000e-01 5.000000e-01 0.000000e+00
4.000000e-01 5.000000e-01 0.000000e+00
5.000000e-01 5.000000e-01 0.000000e+00
6.000000e-01 5.000000e-01 0.000000e+00
7.000000e-01 5.000000e-01 0.000000e+00
8.000000e-01 5.000000e-01 0.000000e+00
9.000000e-01 5.000000e-01 0.000000e+00
1.000000e+00 5.000000e-01 0.000000e+00
0.000000e+00 6.000000e-01 0.000000e+00
1.000000e-01 6.000000e-01 0.000000e+00
2.000000e-01 6.000000e-01 0.000000e+00
3.000000e-01 6.000000e-01 0.000000e+00
4.000000e-01 6.000000e-01 0.000000e+00
5.000000e-01 6.000000e-01 0.000000e+00
6.000000e-01 6.000000e-01 0.000000e+00
7.000000e-01 6.000000e-01 0.000000e+00
8.000000e-01 6.000000e-01 0.000000e+00
9.000000e-01 6.000000e-01 0.000000e+00
1.000000e+00 6.000000e-01 0.000000e+00
0.000000e+00 7.000000e-01 0.000000e+00
1.000000e-01 7.000000e-01 0.000000e+00
2.000000e-01 7.000000e-01 0.000000e+00
3.000000e-01 7.000000e-01 0.000000e+00
4.000000e-01 7.000000e-01 0.000000e+00
5.000000e-01 7.000000e-01 0.000000e+00
6.000000e-01 7.000000e-01 0.000000e+00
7.000000e-01 7.000000e-01 0.000000e+00
8.000000e-01 7.000000e-01 0.000000e+00
9.000000e-01 7.000000e-01 0.000000e+00
1.000000e+00 7.000000e-01 0.000000e+00
0.000000e+00 8.000000e-01 0.000000e+00
1.000000e-01 8.000000e-01 0.000000e+00
2.000000e-01 8.000000e-01 0.000000e+00
3.000000e-01 8.000000e-01 0.000000e+00
4.000000e-01 8.000000e-01 0.000000e+00
5.000000e-01 8.000000e-01 0.000000e+00
6.000000e-01 8.000000e-01 0.000000e+00
7.000000e-01 8.000000e-01 0.000000e+00
8.000000e-01 8.000000e-01 0.000000e+00
9.000000e-01 8.000000e-01 0.000000e+00
1.000000e+00 8.000000e-01 0.000000e+00
0.000000e+00 9.000000e-01 0.000000e+00
1.000000e-01 9.000000e-01 0.000000e+00
2.000000e-01 9.000000e-01 0.000000e+00
3.000000e-01 9.000000e-01 0.000000e+00
4.000000e-01 9.000000e-01 0.000000e+00
5.000000e-01 9.000000e-01 0.000000e+00
6.000000e-01 9.000000e-01 0.000000e+00
7.000000e-01 9.000000e-01 0.000000e+00
8.000000e-01 9.000000e-01 0.000000e+00
9.000000e-01 9.000000e-01 0.000000e+00
1.000000e+00 9.000000e-01 0.000000e+00
0.000000e+00 1.000000e+00 0.000000e+00
1.000000e-01 1.000000e+00 0.000000e+00
2.000000e-01 1.000000e+00 0.000000e+00
3.000000e-01 1.000000e+00 0.000000e+00
4.000000e-01 1.000000e+00 0.000000e+00
5.000000e-01 1.000000e+00 0.000000e+00
6.000000e-01 1.000000e+00 0.000000e+00
7.000000e-01 1.000000e+00 0.000000e+00
8.000000e-01 1.000000e+00 0.000000e+00
9.000000e-01 1.000000e+00 0.000000e+00
1.000000e+00 1.000000e+00 0.000000e+00
CELLS 100 500
4 0 1 12 11
4 1 2 13 12
4 2 3 14 13
4 3 4 15 14
4 4 5 16 15
4 5 6 17 16
4 6 7 18 17
4 7 8 19 18
4 8 9 20 19
4 9 10 21 20
4 11 12 23 22
4 12 13 24 23
4 13 14 25 24
4 14 15 26 25
4 15 16 27 26
4 16 17 28 27
4 17 18 29 28
4 18 19 30 29
4 19 20 31 30
4 20 21 32 31
4 22 23 34 33
4 23 24 35 34
4 24 25 36 35
4 25 26 37 36
4 26 27 38 37
4 27 28 39 38
4 28 29 40 39
4 29 30 41 40
4 30 31 42 41
4 31 32 43 42
4 33 34 45 44
4 34 35 46 45
4 35 36 47 46
4 36 37 48 47
4 37 38 49 48
4 38 39 50 49
4 39 40 51 50
4 40 41 52 51
4 41 42 53 52
4 42 43 54 53
4 44 45 56 55
4 45 46 57 56
4 46 47 58 57
4 47 48 59 58
4 48 49 60 59
4 49 50 61 60
4 50 51 62 61
4 51 52 63 62
4 52 53 64 63
4 53 54 65 64
4 55 56 67 66
4 56 57 68 67
4 57 58 69 68
4 58 59 70 69
4 59 60 71 70
4 60 61 72 71
4 61 62 73 72
4 62 63 74 73
4 63 64 75 74
4 64 65 76 75
4 66 67 78 77
4 67 68 79 78
4 68 69 80 79
4 69 70 81 80
4 70 71 82 81
4 71 72 83 82
4 72 73 84 83
4 73 74 85 84
4 74 75 86 85
4 75 76 87 86
4 77 78 89 88
4 78 79 90 89
4 79 80 91 90
4 80 81 92 91
4 81 82 93 92
4 82 83 94 93
4 83 84 95 94
4 84 85 96 95
4 85 86 97 96
4 86 87 98 97
4 88 89 100 99
4 89 90 101 100
4 90 91 102 101
4 91 92 103 102
4 92 93 104 103
4 93 94 105 104
4 94 95 106 105
4 95 96 107 106
4 96 97 108 107
4 97 98 109 108
4 99 100 111 110
4 100 101 112 111
4 101 102 113 112
4 102 103 114 113
4 103 104 115 114
4 104 105 116 115
4 105 106 117 116
4 106 107 118 117
4 107 108 119 118
4 108 109 120 119
CELL_TYPES 100
9
9
9
9
9
9
9
9
9
9
9
9
9
9
9
9
9
9
9
9
9
9
9
9
9
9
9
9
9
9
9
9
9
9
9
9
9
9
9
9
9
9
9
9
9
9
9
9
9
9
9
9
9
9
9
9
9
9
9
9
9
9
9
9
9
9
9
9
9
9
9
9
9
9
9
9
9
9
9
9
9
9
9
9
9
9
9
9
9
9
9
9
9
9
9
9
9
9
9
9
POINT_DATA 121
VECTORS displacement double
0.000000e+00 0.000000e+00 0.0
1.769206e-06 1.494639e-06 0.0
2.945802e-06 2.917358e-06 0.0
3.796230e-06 4.445131e-06 0.0
4.412523e-06 6.017982e-06 0.0
4.835611e-06 7.605141e-06 0.0
5.098075e-06 9.169030e-06 0.0
5.232803e-06 1.067672e-05 0.0
5.277646e-06 1.210413e-05 0.0
5.276856e-06 1.344611e-05 0.0
5.271698e-06 1.473535e-05 0.0
0.000000e+00 0.000000e+00 0.0
8.842325e-07 1.159672e-06 0.0
1.777561e-06 2.671968e-06 0.0
2.490358e-06 4.250865e-06 0.0
3.032959e-06 5.877993e-06 0.0
3.427094e-06 7.511685e-06 0.0
3.695641e-06 9.115048e-06 0.0
3.861829e-06 1.065394e-05 0.0
3.949629e-06 1.210279e-05 0.0
3.983434e-06 1.345323e-05 0.0
3.990783e-06 1.473024e-05 0.0
0.000000e+00 0.000000e+00 0.0
5.566994e-07 1.103651e-06 0.0
1.093597e-06 2.533887e-06 0.0
1.590559e-06 4.129024e-06 0.0
1.996994e-06 5.785473e-06 0.0
2.306567e-06 7.453101e-06 0.0
2.525887e-06 9.088678e-06 0.0
2.666236e-06 1.065618e-05 0.0
2.740356e-06 1.212751e-05 0.0
2.763562e-06 1.348624e-05 0.0
2.762114e-06 1.473004e-05 0.0
0.000000e+00 0.000000e+00 0.0
3.403993e-07 1.120429e-06 0.0
6.579718e-07 2.518423e-06 0.0
9.490766e-07 4.098519e-06 0.0
1.198268e-06 5.768162e-06 0.0
1.391946e-06 7.458633e-06 0.0
1.528281e-06 9.120490e-06 0.0
1.610406e-06 1.071418e-05 0.0
1.643844e-06 1.220731e-05 0.0
1.638287e-06 1.357168e-05 0.0
1.614617e-06 1.477618e-05 0.0
0.000000e+00 0.000000e+00 0.0
1.757336e-07 1.161718e-06 0.0
3.214176e-07 2.568960e-06 0.0
4.421045e-07 4.153197e-06 0.0
5.364993e-07 5.834443e-06 0.0
6.026383e-07 7.543421e-06 0.0
6.398941e-07 9.226787e-06 0.0
6.488316e-07 1.084329e-05 0.0
6.304326e-07 1.235695e-05 0.0
5.884335e-07 1.372951e-05 0.0
5.341361e-07 1.490951e-05 0.0
0.000000e+00 0.000000e+00 0.0
2.849540e-08 1.216534e-06 0.0
2.023247e-08 2.665096e-06 0.0
-1.730883e-08 4.280237e-06 0.0
-7.350921e-08 5.985259e-06 0.0
-1.383583e-07 7.713341e-06 0.0
-2.056487e-07 9.414069e-06 0.0
-2.741145e-07 1.104914e-05 0.0
-3.466595e-07 1.258328e-05 0.0
-4.271557e-07 1.397330e-05 0.0
-5.162595e-07 1.515697e-05 0.0
0.000000e+00 0.000000e+00 0.0
-1.228156e-07 1.285911e-06 0.0
-2.916593e-07 2.807483e-06 0.0
-4.946822e-07 4.481483e-06 0.0
-7.067597e-07 6.223744e-06 0.0
-9.052339e-07 7.971328e-06 0.0
-1.076891e-06 9.682952e-06 0.0
-1.220121e-06 1.133037e-05 0.0
-1.342753e-06 1.288592e-05 0.0
-1.458939e-06 1.430819e-05 0.0
-1.582935e-06 1.553033e-05 0.0
0.000000e+00 0.000000e+00 0.0
-3.009220e-07 1.380658e-06 0.0
-6.638266e-07 3.015314e-06 0.0
-1.058404e-06 4.774263e-06 0.0
-1.439634e-06 6.559458e-06 0.0
-1.771343e-06 8.319309e-06 0.0
-2.042121e-06 1.003025e-05 0.0
-2.252394e-06 1.167918e-05 0.0
-2.415217e-06 1.325550e-05 0.0
-2.558200e-06 1.472954e-05 0.0
-2.713038e-06 1.602930e-05 0.0
0.000000e+00 0.000000e+00 0.0
-5.490062e-07 1.528436e-06 0.0
-1.172058e-06 3.334248e-06 0.0
-1.808522e-06 5.190166e-06 0.0
-2.358147e-06 6.999099e-06 0.0
-2.807437e-06 8.754479e-06 0.0
-3.161865e-06 1.044972e-05 0.0
-3.430570e-06 1.208348e-05 0.0
-3.621491e-06 1.367013e-05 0.0
-3.773591e-06 1.521967e-05 0.0
-3.951146e-06 1.665085e-05 0.0
0.000000e+00 0.000000e+00 0.0
-9.437786e-07 1.817626e-06 0.0
-2.026663e-06 3.860305e-06 0.0
-2.884595e-06 5.735041e-06 0.0
-3.552688e-06 7.531259e-06 0.0
-4.072078e-06 9.260550e-06 0.0
-4.475431e-06 1.092820e-05 0.0
-4.787414e-06 1.253745e-05 0.0
-5.023115e-06 1.410369e-05 0.0
-5.170394e-06 1.572727e-05 0.0
-5.350426e-06 1.741614e-05 0.0
0.000000e+00 9.090909e+04 0.0
-2.239126e-06 2.600787e-06 0.0
-3.526111e-06 4.528944e-06 0.0
-4.419652e-06 6.363832e-06 0.0
-5.090210e-06 8.110861e-06 0.0
-5.599759e-06 9.801705e-06 0.0
-5.990014e-06 1.143876e-05 0.0
-6.299842e-06 1.302436e-05 0.0
-6.577603e-06 1.458398e-05 0.0
-6.878333e-06 1.616857e-05 0.0
-7.195052e-06 1.840309e-05 0.0
